<svg xmlns="http://www.w3.org/2000/svg" xmlns:xlink="http://www.w3.org/1999/xlink" width="403" zoomAndPan="magnify" viewBox="0 0 302.25 383.999986" height="512" preserveAspectRatio="xMidYMid meet" version="1.0"><defs><clipPath id="8a908452c9"><path d="M 99 153 L 217 153 L 217 358 L 99 358 Z M 99 153 " clip-rule="nonzero"/></clipPath><clipPath id="42fb8e7813"><path d="M 0 60.414062 L 208.511719 0.449219 L 301.355469 323.28125 L 92.84375 383.246094 Z M 0 60.414062 " clip-rule="nonzero"/></clipPath><clipPath id="ecb4d27b6d"><path d="M 0 60.414062 L 208.511719 0.449219 L 301.355469 323.28125 L 92.84375 383.246094 Z M 0 60.414062 " clip-rule="nonzero"/></clipPath><clipPath id="08980cc4f4"><path d="M 86 120 L 177 120 L 177 217 L 86 217 Z M 86 120 " clip-rule="nonzero"/></clipPath><clipPath id="52ad7f6536"><path d="M 0 60.414062 L 208.511719 0.449219 L 301.355469 323.28125 L 92.84375 383.246094 Z M 0 60.414062 " clip-rule="nonzero"/></clipPath><clipPath id="d10f0fdca9"><path d="M 0 60.414062 L 208.511719 0.449219 L 301.355469 323.28125 L 92.84375 383.246094 Z M 0 60.414062 " clip-rule="nonzero"/></clipPath><clipPath id="ac3e3dc289"><path d="M 57 104 L 107 104 L 107 174 L 57 174 Z M 57 104 " clip-rule="nonzero"/></clipPath><clipPath id="d881fdaf49"><path d="M 0 60.414062 L 208.511719 0.449219 L 301.355469 323.28125 L 92.84375 383.246094 Z M 0 60.414062 " clip-rule="nonzero"/></clipPath><clipPath id="e8ad31ead7"><path d="M 0 60.414062 L 208.511719 0.449219 L 301.355469 323.28125 L 92.84375 383.246094 Z M 0 60.414062 " clip-rule="nonzero"/></clipPath><clipPath id="931764b023"><path d="M 163 82 L 209 82 L 209 134 L 163 134 Z M 163 82 " clip-rule="nonzero"/></clipPath><clipPath id="ffafd60b7e"><path d="M 0 60.414062 L 208.511719 0.449219 L 301.355469 323.28125 L 92.84375 383.246094 Z M 0 60.414062 " clip-rule="nonzero"/></clipPath><clipPath id="1ca159c6e9"><path d="M 0 60.414062 L 208.511719 0.449219 L 301.355469 323.28125 L 92.84375 383.246094 Z M 0 60.414062 " clip-rule="nonzero"/></clipPath><clipPath id="e5bbd4ac9a"><path d="M 100 66 L 159 66 L 159 144 L 100 144 Z M 100 66 " clip-rule="nonzero"/></clipPath><clipPath id="bbd1029532"><path d="M 0 60.414062 L 208.511719 0.449219 L 301.355469 323.28125 L 92.84375 383.246094 Z M 0 60.414062 " clip-rule="nonzero"/></clipPath><clipPath id="4c152ffcff"><path d="M 0 60.414062 L 208.511719 0.449219 L 301.355469 323.28125 L 92.84375 383.246094 Z M 0 60.414062 " clip-rule="nonzero"/></clipPath><clipPath id="a516ec2ba8"><path d="M 125 23 L 163 23 L 163 66 L 125 66 Z M 125 23 " clip-rule="nonzero"/></clipPath><clipPath id="79e7c43c08"><path d="M 0 60.414062 L 208.511719 0.449219 L 301.355469 323.28125 L 92.84375 383.246094 Z M 0 60.414062 " clip-rule="nonzero"/></clipPath><clipPath id="663e00878e"><path d="M 0 60.414062 L 208.511719 0.449219 L 301.355469 323.28125 L 92.84375 383.246094 Z M 0 60.414062 " clip-rule="nonzero"/></clipPath><clipPath id="f0b8555266"><path d="M 47 181 L 80 181 L 80 229 L 47 229 Z M 47 181 " clip-rule="nonzero"/></clipPath><clipPath id="3d43709357"><path d="M 0 60.414062 L 208.511719 0.449219 L 301.355469 323.28125 L 92.84375 383.246094 Z M 0 60.414062 " clip-rule="nonzero"/></clipPath><clipPath id="c932b60c2a"><path d="M 0 60.414062 L 208.511719 0.449219 L 301.355469 323.28125 L 92.84375 383.246094 Z M 0 60.414062 " clip-rule="nonzero"/></clipPath><clipPath id="0bd8aea099"><path d="M 108 78 L 149 78 L 149 108 L 108 108 Z M 108 78 " clip-rule="nonzero"/></clipPath><clipPath id="25f1948dec"><path d="M 0 60.414062 L 208.511719 0.449219 L 301.355469 323.28125 L 92.84375 383.246094 Z M 0 60.414062 " clip-rule="nonzero"/></clipPath><clipPath id="8b02f1a19c"><path d="M 0 60.414062 L 208.511719 0.449219 L 301.355469 323.28125 L 92.84375 383.246094 Z M 0 60.414062 " clip-rule="nonzero"/></clipPath><clipPath id="112512123c"><path d="M 150 170 L 189 170 L 189 209 L 150 209 Z M 150 170 " clip-rule="nonzero"/></clipPath><clipPath id="4743ade8ce"><path d="M 0 60.414062 L 208.511719 0.449219 L 301.355469 323.28125 L 92.84375 383.246094 Z M 0 60.414062 " clip-rule="nonzero"/></clipPath><clipPath id="834bf262dc"><path d="M 0 60.414062 L 208.511719 0.449219 L 301.355469 323.28125 L 92.84375 383.246094 Z M 0 60.414062 " clip-rule="nonzero"/></clipPath><clipPath id="9198fa069e"><path d="M 177 135 L 215 135 L 215 165 L 177 165 Z M 177 135 " clip-rule="nonzero"/></clipPath><clipPath id="865ef13cb9"><path d="M 0 60.414062 L 208.511719 0.449219 L 301.355469 323.28125 L 92.84375 383.246094 Z M 0 60.414062 " clip-rule="nonzero"/></clipPath><clipPath id="b51ef85873"><path d="M 0 60.414062 L 208.511719 0.449219 L 301.355469 323.28125 L 92.84375 383.246094 Z M 0 60.414062 " clip-rule="nonzero"/></clipPath><clipPath id="3c581433aa"><path d="M 163 47 L 194 47 L 194 88 L 163 88 Z M 163 47 " clip-rule="nonzero"/></clipPath><clipPath id="a43d6c0163"><path d="M 0 60.414062 L 208.511719 0.449219 L 301.355469 323.28125 L 92.84375 383.246094 Z M 0 60.414062 " clip-rule="nonzero"/></clipPath><clipPath id="943d3cc129"><path d="M 0 60.414062 L 208.511719 0.449219 L 301.355469 323.28125 L 92.84375 383.246094 Z M 0 60.414062 " clip-rule="nonzero"/></clipPath><clipPath id="0baa940702"><path d="M 24 139 L 56 139 L 56 171 L 24 171 Z M 24 139 " clip-rule="nonzero"/></clipPath><clipPath id="ccc5146a4b"><path d="M 0 60.414062 L 208.511719 0.449219 L 301.355469 323.28125 L 92.84375 383.246094 Z M 0 60.414062 " clip-rule="nonzero"/></clipPath><clipPath id="230c9a7ae0"><path d="M 0 60.414062 L 208.511719 0.449219 L 301.355469 323.28125 L 92.84375 383.246094 Z M 0 60.414062 " clip-rule="nonzero"/></clipPath><clipPath id="18eed83b27"><path d="M 195 50 L 212 50 L 212 91 L 195 91 Z M 195 50 " clip-rule="nonzero"/></clipPath><clipPath id="f07f4154db"><path d="M 0 60.414062 L 208.511719 0.449219 L 301.355469 323.28125 L 92.84375 383.246094 Z M 0 60.414062 " clip-rule="nonzero"/></clipPath><clipPath id="fc05e40cd4"><path d="M 0 60.414062 L 208.511719 0.449219 L 301.355469 323.28125 L 92.84375 383.246094 Z M 0 60.414062 " clip-rule="nonzero"/></clipPath><clipPath id="6103a54507"><path d="M 73 72 L 92 72 L 92 100 L 73 100 Z M 73 72 " clip-rule="nonzero"/></clipPath><clipPath id="8d161771b3"><path d="M 0 60.414062 L 208.511719 0.449219 L 301.355469 323.28125 L 92.84375 383.246094 Z M 0 60.414062 " clip-rule="nonzero"/></clipPath><clipPath id="5d82fca2cd"><path d="M 0 60.414062 L 208.511719 0.449219 L 301.355469 323.28125 L 92.84375 383.246094 Z M 0 60.414062 " clip-rule="nonzero"/></clipPath><clipPath id="2d4d54af6d"><path d="M 29 115 L 59 115 L 59 129 L 29 129 Z M 29 115 " clip-rule="nonzero"/></clipPath><clipPath id="f242212971"><path d="M 0 60.414062 L 208.511719 0.449219 L 301.355469 323.28125 L 92.84375 383.246094 Z M 0 60.414062 " clip-rule="nonzero"/></clipPath><clipPath id="717e27d95c"><path d="M 0 60.414062 L 208.511719 0.449219 L 301.355469 323.28125 L 92.84375 383.246094 Z M 0 60.414062 " clip-rule="nonzero"/></clipPath><clipPath id="352db61ed8"><path d="M 208 111 L 243 111 L 243 124 L 208 124 Z M 208 111 " clip-rule="nonzero"/></clipPath><clipPath id="bf9fd7fec6"><path d="M 0 60.414062 L 208.511719 0.449219 L 301.355469 323.28125 L 92.84375 383.246094 Z M 0 60.414062 " clip-rule="nonzero"/></clipPath><clipPath id="3b17e87a15"><path d="M 0 60.414062 L 208.511719 0.449219 L 301.355469 323.28125 L 92.84375 383.246094 Z M 0 60.414062 " clip-rule="nonzero"/></clipPath><clipPath id="fd07880585"><path d="M 113 179 L 132 179 L 132 202 L 113 202 Z M 113 179 " clip-rule="nonzero"/></clipPath><clipPath id="8e06051c2b"><path d="M 0 60.414062 L 208.511719 0.449219 L 301.355469 323.28125 L 92.84375 383.246094 Z M 0 60.414062 " clip-rule="nonzero"/></clipPath><clipPath id="e5c12b6e7e"><path d="M 0 60.414062 L 208.511719 0.449219 L 301.355469 323.28125 L 92.84375 383.246094 Z M 0 60.414062 " clip-rule="nonzero"/></clipPath></defs><g clip-path="url(#8a908452c9)"><g clip-path="url(#42fb8e7813)"><g clip-path="url(#ecb4d27b6d)"><path fill="#c13c35" d="M 194.589844 279.339844 L 198.417969 277.179688 C 201.574219 275.386719 206.671875 273.175781 210.4375 273.875 C 210.777344 273.9375 213.199219 274.789062 213.433594 274.933594 C 215.144531 276.066406 216.230469 278.390625 216.117188 280.40625 C 215.894531 284.195312 212.730469 287.347656 209.511719 288.882812 C 205.128906 290.976562 197.878906 292.335938 193.058594 292.355469 C 191.980469 292.355469 191.230469 292.238281 190.183594 292.15625 C 189.386719 292.097656 188.554688 292.207031 187.75 292.054688 C 188.09375 292.542969 187.730469 293.234375 187.960938 293.636719 C 188.085938 293.847656 189.355469 295.179688 189.589844 295.367188 C 189.921875 295.625 190.488281 295.773438 190.808594 296.035156 C 196.742188 300.859375 200.945312 305.9375 202.148438 313.652344 C 202.738281 317.398438 202.628906 320.097656 204.277344 323.789062 C 207.226562 330.378906 212.222656 334.054688 210.089844 342.300781 C 209.820312 343.363281 208.441406 346.777344 207.566406 347.265625 C 206.785156 347.703125 205.683594 347.09375 205.625 346.191406 C 205.589844 345.507812 206.210938 344.324219 206.371094 343.617188 C 206.878906 341.347656 207.199219 338.40625 206.335938 336.230469 C 204.855469 332.492188 201.394531 329.058594 199.621094 325.382812 C 198.621094 323.320312 198.042969 320.96875 197.6875 318.734375 C 196.988281 314.292969 197.429688 309.714844 194.496094 305.890625 C 192.773438 303.644531 189.902344 301.578125 188.347656 299.398438 C 187.707031 298.503906 187.515625 297.4375 186.949219 296.535156 C 186.886719 296.433594 186.496094 295.96875 186.4375 296.019531 C 186.269531 296.472656 185.753906 296.355469 185.460938 296.675781 C 185.203125 296.960938 185.011719 297.96875 184.972656 298.394531 C 184.667969 302.558594 185.421875 307.007812 185.039062 311.355469 C 184.617188 316.269531 183.390625 319.503906 181.371094 323.832031 C 178.679688 329.582031 175.910156 337.070312 177.1875 343.585938 C 177.996094 347.730469 179.277344 350.777344 180.640625 354.625 C 180.824219 355.160156 181.371094 356.796875 181.378906 357.230469 C 181.382812 357.835938 180.675781 357.796875 180.28125 357.429688 C 179.304688 356.152344 179.199219 354.589844 178.6875 353.136719 C 177.996094 351.191406 176.875 349.175781 176.191406 347.214844 C 173.945312 340.742188 173.496094 334.09375 174.886719 327.382812 C 175.734375 323.277344 177.632812 319.378906 178.511719 315.269531 C 179.433594 310.9375 179.371094 306.496094 179.921875 302.132812 C 180.113281 300.605469 180.542969 299.09375 180.878906 297.597656 C 180.722656 297.523438 179.507812 298.203125 179.210938 298.363281 C 173.128906 301.703125 166.996094 304.652344 159.839844 304.898438 C 157.503906 304.980469 155.320312 304.402344 153.707031 302.691406 C 152.523438 301.4375 152.242188 299.675781 152.363281 298.027344 C 152.582031 295.1875 154.917969 292.242188 157.332031 290.835938 C 160.171875 289.164062 163.738281 288.351562 166.972656 288.0625 C 167.203125 288.039062 167.914062 288.324219 168.09375 287.835938 C 166.753906 286.8125 165.238281 286.039062 163.84375 285.085938 C 153.453125 277.976562 142.710938 269.132812 135.21875 258.851562 C 133.351562 256.300781 131.746094 253.5 129.808594 251 C 122.859375 242.007812 112.882812 236.644531 106.160156 227.261719 C 103.574219 223.652344 100.359375 218.042969 99.890625 213.707031 C 99.820312 213.085938 99.605469 212.785156 99.832031 212.089844 C 100.371094 210.472656 101.910156 211.074219 102.542969 212.238281 C 103.082031 213.214844 103.515625 214.542969 104.070312 215.578125 C 106.457031 220.015625 109.304688 224.160156 112.746094 227.929688 C 117.5 233.140625 123.699219 236.875 128.710938 241.839844 C 135.527344 248.578125 139.84375 257.125 146.667969 264 C 153.511719 270.902344 161.167969 276.152344 168.796875 281.859375 C 171.734375 284.054688 173.996094 286.683594 176.664062 289.203125 C 177.125 289.070312 179.878906 290.070312 179.953125 289.910156 C 179.96875 289.863281 179.8125 289.578125 179.832031 289.347656 C 179.867188 288.6875 180.367188 287.164062 180.824219 286.714844 C 181.535156 285.996094 182.261719 286.023438 183.203125 286.03125 L 186.324219 287.566406 C 186.351562 287.152344 186.964844 286.910156 187 286.847656 C 187.03125 286.796875 186.988281 286.125 187.097656 285.808594 C 188.230469 282.511719 190.972656 278.425781 192.457031 275.054688 C 196.4375 266.019531 196.136719 256.59375 199.910156 247.558594 C 202.601562 241.105469 205.304688 236.355469 206.480469 229.125 C 207.65625 221.890625 208.453125 215.042969 209.378906 208.0625 C 211.253906 194.09375 211.128906 179.589844 213.945312 165.855469 C 214.597656 162.699219 215.359375 158.777344 215.003906 155.503906 C 214.933594 154.851562 214.589844 154.171875 214.464844 153.515625 C 214.851562 153.519531 214.917969 153.042969 215.214844 153.042969 C 215.726562 153.042969 216.082031 154.5 216.160156 154.957031 C 216.230469 155.34375 216.105469 156.097656 216.121094 156.527344 C 216.292969 160.28125 215.960938 164.066406 216.035156 167.816406 C 216.304688 179.992188 216.757812 192.179688 215.203125 204.335938 C 214.46875 210.089844 213.40625 215.828125 212.546875 221.5625 C 211.929688 225.71875 211.683594 229.953125 210.695312 234.058594 C 209.3125 239.828125 206.523438 245.015625 204.292969 250.394531 C 200.996094 258.347656 200.761719 266.910156 196.96875 274.78125 C 196.226562 276.316406 195.179688 277.71875 194.558594 279.304688 Z M 192.449219 287.898438 C 192.546875 287.945312 193.441406 287.558594 193.757812 287.519531 C 198.496094 286.765625 202.355469 286.339844 206.972656 284.507812 C 207.691406 284.226562 209.542969 283.054688 210.089844 282.460938 C 210.25 282.277344 211.011719 281.214844 211.082031 281.023438 C 211.695312 279.394531 210.992188 278.550781 209.296875 278.484375 C 205.914062 278.34375 199.589844 281.59375 196.761719 283.636719 C 195.261719 284.71875 193.992188 286.171875 192.636719 287.320312 C 192.445312 287.480469 191.945312 287.667969 192.464844 287.914062 Z M 176.574219 293.230469 C 174.976562 293.328125 173.40625 292.730469 171.867188 292.578125 C 168.304688 292.203125 163.78125 292.695312 160.59375 294.238281 C 160.128906 294.46875 159.320312 294.96875 158.898438 295.28125 C 158.105469 295.863281 156.921875 297.429688 157.078125 298.453125 C 157.335938 300.128906 159.109375 299.351562 160.316406 299.464844 C 165.378906 298.59375 170.035156 296.894531 174.503906 294.574219 L 176.585938 293.238281 Z M 176.574219 293.230469 " fill-opacity="1" fill-rule="nonzero"/></g></g></g><g clip-path="url(#08980cc4f4)"><g clip-path="url(#52ad7f6536)"><g clip-path="url(#d10f0fdca9)"><path fill="#c13c35" d="M 106.125 206.726562 C 106.058594 206.679688 105.203125 207.640625 104.988281 207.789062 C 104.519531 208.117188 103.109375 208.820312 102.570312 209.027344 C 100.605469 209.804688 99.226562 209.425781 97.445312 208.570312 C 97.246094 208.476562 97.007812 208.609375 96.945312 208.574219 C 96.894531 208.546875 96.210938 207.953125 96.066406 207.824219 C 93.691406 205.691406 93.140625 202.550781 93.582031 199.488281 C 93.648438 199.042969 94.285156 196.988281 94.070312 196.878906 C 93.957031 196.816406 92.460938 197.40625 92.050781 197.460938 C 91.714844 197.515625 90.683594 197.417969 90.351562 197.308594 C 89.703125 197.089844 88.386719 195.964844 88.035156 195.382812 C 87.886719 195.125 87.867188 194.800781 87.730469 194.5 C 87.207031 193.429688 87.054688 192.824219 86.921875 191.613281 C 86.371094 186.542969 88.226562 181.675781 91.703125 177.953125 C 91.929688 177.707031 92.515625 177.367188 92.546875 177.324219 C 92.613281 177.222656 92.332031 175.796875 92.324219 175.511719 C 92.199219 172.738281 92.457031 168.886719 94.050781 166.527344 C 96.28125 163.25 99.542969 160.15625 103.175781 158.652344 C 103.976562 158.316406 104.558594 158.480469 105.144531 158.363281 C 106.515625 158.085938 107.550781 157.605469 109.050781 157.773438 C 109.316406 157.804688 109.507812 158.058594 109.6875 158.058594 C 110.03125 158.066406 113.335938 155.933594 114.027344 155.519531 C 114.769531 155.082031 115.023438 154.605469 116.066406 154.441406 C 116.324219 154.402344 116.496094 154.523438 116.625 154.519531 C 116.863281 154.503906 117.085938 154.386719 117.289062 154.390625 C 120.273438 154.515625 122.703125 158.320312 122.199219 161.144531 L 125.277344 160.257812 C 125.089844 159.980469 125.335938 159.71875 125.316406 159.585938 C 125.269531 159.195312 125.058594 158.828125 125.042969 158.4375 C 125.023438 158.046875 125.339844 156.730469 125.242188 156.574219 C 125.085938 156.332031 123.648438 155.785156 123.257812 155.46875 C 122.261719 154.679688 121.761719 152.976562 121.53125 151.730469 C 120.925781 148.476562 122.53125 143.402344 125.425781 141.558594 C 125.660156 141.40625 126.183594 141.363281 126.21875 141.296875 C 126.257812 141.222656 125.992188 140.699219 125.976562 140.460938 C 125.8125 138.808594 125.476562 137.082031 125.847656 135.414062 C 126.222656 133.75 127.460938 131.695312 128.699219 130.625 C 130.640625 128.957031 133.089844 128.261719 135.523438 127.894531 L 139.78125 127.917969 C 139.78125 127.917969 139.667969 127.714844 139.707031 127.585938 C 139.929688 126.660156 140.636719 124.777344 141.21875 124.046875 C 142.070312 122.96875 143.3125 122.386719 144.65625 122.160156 C 145.542969 122.011719 148.410156 122.40625 149.296875 122.746094 C 149.65625 122.878906 150.433594 123.5 150.675781 123.492188 C 151.273438 123.492188 152.28125 122.285156 152.800781 121.898438 C 153.320312 121.515625 154.609375 120.621094 155.148438 120.414062 C 155.582031 120.246094 155.824219 120.453125 156.167969 120.398438 C 157.488281 120.199219 157.953125 119.992188 159.371094 120.363281 C 161.96875 121.046875 163.511719 123.101562 163.992188 125.707031 C 164.171875 126.65625 164.023438 127.992188 163.765625 128.960938 C 163.710938 129.171875 163.207031 130.351562 163.277344 130.382812 L 165.640625 130.25 C 166.875 130.300781 168.753906 131.339844 169.449219 132.355469 C 169.5625 132.527344 169.574219 132.789062 169.695312 132.988281 C 169.761719 133.097656 169.953125 133.183594 170.054688 133.417969 C 170.398438 134.25 170.480469 135.679688 170.320312 136.566406 C 170.246094 136.941406 169.589844 138.078125 169.617188 138.167969 C 169.652344 138.285156 171.246094 139.117188 171.664062 139.5 C 175.65625 143.101562 177.394531 147.875 174.988281 152.878906 C 174.898438 153.078125 175.03125 153.316406 174.996094 153.378906 C 174.960938 153.445312 174.6875 153.457031 174.566406 153.640625 C 173.035156 156.066406 171.746094 157.046875 169.117188 158.1875 C 169.023438 158.226562 168.9375 158.453125 168.6875 158.546875 C 168.082031 158.785156 167.03125 158.871094 166.558594 159.15625 C 166.203125 159.378906 166.394531 160.402344 166.359375 160.839844 C 166.214844 162.449219 166.066406 163.421875 165.371094 164.867188 C 165.277344 165.066406 165.410156 165.304688 165.375 165.367188 C 165.347656 165.417969 165.082031 165.453125 164.960938 165.628906 C 164.03125 166.929688 163.042969 167.800781 161.578125 168.53125 C 159.089844 169.792969 156.628906 170.136719 153.945312 170.449219 C 152.878906 170.574219 153.292969 170.753906 153.136719 171.207031 C 152.667969 172.578125 151.496094 174.453125 150.128906 175.113281 C 149.746094 175.296875 149.3125 175.316406 148.972656 175.464844 C 146.773438 176.441406 145.601562 176.746094 143.214844 176.910156 C 142.449219 176.957031 141.683594 176.996094 140.902344 176.773438 C 140.566406 177.09375 140.78125 177.394531 140.746094 177.671875 C 140.453125 179.878906 139.714844 182.335938 138.269531 184.0625 C 138.109375 184.246094 137.765625 184.570312 137.542969 184.65625 C 137.371094 184.726562 136.460938 184.742188 136.410156 184.714844 C 136.359375 184.6875 136.136719 183.886719 136.128906 183.664062 L 137.445312 179.816406 C 137.835938 176.277344 137.570312 172.019531 134.421875 169.789062 C 134.066406 169.890625 132.933594 169.03125 132.765625 169.367188 C 132.738281 169.429688 132.894531 170.375 132.859375 170.707031 C 132.777344 171.605469 132.351562 172.988281 131.851562 173.730469 C 131.394531 174.40625 130.40625 175.308594 129.527344 175.039062 C 129.082031 174.898438 128.601562 173.980469 128.601562 173.523438 C 128.597656 173.289062 129.074219 172.757812 129.175781 172.449219 C 129.761719 170.691406 129.738281 168.464844 128.925781 166.789062 C 128.769531 166.46875 127.820312 165.207031 127.539062 164.976562 C 127.328125 164.792969 126.136719 164.144531 125.867188 164.050781 C 125.347656 163.878906 124.742188 163.96875 124.179688 163.871094 C 123.5625 163.761719 122.988281 163.4375 122.222656 163.453125 C 121.460938 163.46875 121.792969 163.738281 121.667969 164.117188 C 121.363281 165.023438 120.515625 166.71875 119.964844 167.550781 C 119.757812 167.867188 118.640625 169 118.648438 169.210938 C 118.660156 169.613281 120.261719 170.21875 120.699219 170.542969 C 121.132812 170.867188 122.390625 172.050781 122.621094 172.445312 C 122.769531 172.699219 122.789062 173.027344 122.929688 173.328125 C 125.710938 179.027344 122.730469 185.554688 118.714844 189.933594 C 117.617188 191.121094 116.363281 192.371094 114.863281 192.972656 C 114.296875 193.199219 113.226562 193.261719 112.871094 193.660156 C 112.335938 194.253906 111.957031 197.050781 111.691406 197.984375 C 111.027344 200.277344 109.871094 202.863281 108.382812 204.699219 C 108.214844 204.898438 107.945312 204.929688 107.941406 204.945312 C 107.835938 205.101562 108.324219 205.464844 108.421875 205.691406 C 108.632812 206.195312 108.671875 206.855469 108.882812 207.371094 C 109.210938 208.175781 110.578125 210.140625 111.175781 210.769531 C 112.117188 211.75 113.496094 212.3125 114.851562 212.390625 C 117.109375 212.523438 117.285156 211.425781 118.589844 209.949219 C 119.566406 208.292969 120.332031 206.492188 121.527344 205.007812 C 121.707031 204.785156 121.742188 204.464844 121.972656 204.261719 C 122.480469 203.792969 123.332031 203.613281 123.960938 203.378906 C 124.070312 203.347656 124.121094 203.078125 124.378906 203.054688 C 125.742188 202.929688 126.972656 202.640625 128.335938 202.410156 C 128.660156 202.347656 128.914062 202.5625 129.355469 202.394531 C 129.613281 202.285156 129.671875 202.085938 129.785156 202.035156 C 129.988281 201.921875 130.25 201.902344 130.421875 201.789062 C 131.71875 200.890625 133.84375 197.664062 134.203125 196.121094 C 134.671875 194.085938 134.332031 192.039062 134.40625 190.074219 C 134.425781 189.4375 134.796875 188.09375 135.394531 187.835938 C 136.523438 187.339844 137.140625 187.367188 137.320312 188.703125 C 137.386719 189.152344 136.9375 189.667969 136.964844 190.097656 C 137.039062 191.214844 137.832031 192.707031 138.035156 193.863281 C 138.796875 198.289062 134.816406 204.71875 130.742188 206.328125 C 129.152344 206.957031 127.488281 206.953125 125.871094 207.195312 C 124.253906 207.4375 124.347656 208.359375 123.59375 209.527344 C 122.742188 210.835938 121.90625 212.414062 120.929688 213.621094 C 117.199219 218.21875 110.738281 216.714844 107.9375 211.945312 C 107.789062 211.699219 107.421875 211.15625 107.40625 211.105469 C 107.226562 210.476562 106.332031 206.855469 106.148438 206.730469 Z M 135.945312 156.421875 C 138.179688 155.160156 138.84375 152.171875 141.679688 151.976562 C 142.113281 151.949219 142.910156 152.390625 143.308594 152.628906 C 143.960938 153.027344 144.78125 153.808594 145.417969 154.210938 C 146.136719 154.664062 147.910156 155.746094 148.617188 155.980469 C 149.398438 156.246094 149.757812 156.046875 150.386719 155.558594 C 151.457031 154.714844 151.546875 153.539062 151.617188 152.269531 C 151.628906 152.050781 151.492188 151.824219 151.488281 151.601562 C 151.507812 150.625 151.882812 149.695312 152.6875 149.078125 C 152.785156 149.007812 153.261719 148.667969 153.300781 148.65625 C 153.371094 148.636719 153.582031 148.777344 153.835938 148.726562 C 154.996094 148.46875 155.867188 148.484375 157.023438 148.34375 C 158.355469 148.183594 160.347656 147.804688 161.621094 147.257812 C 162.265625 146.976562 162.941406 146.203125 163.164062 145.53125 C 163.386719 144.859375 163.210938 144.066406 162.9375 143.410156 C 162.542969 142.453125 162.105469 142.003906 161.957031 140.894531 C 161.898438 140.429688 161.675781 139.992188 161.914062 139.476562 C 161.953125 139.390625 162.609375 138.59375 162.695312 138.523438 C 163.042969 138.242188 163.667969 138.050781 163.972656 137.847656 C 164.941406 137.164062 165.957031 136.285156 166.128906 135.0625 C 166.367188 133.808594 162.222656 133.164062 161.941406 133.339844 C 161.632812 133.535156 161.621094 134.832031 161.472656 135.269531 C 161.046875 136.46875 158.8125 139.578125 157.730469 140.15625 C 157.363281 140.359375 156.050781 140.734375 155.714844 140.640625 C 154.992188 140.429688 154.183594 139.554688 154.175781 138.777344 C 154.171875 138.5 156.328125 136.832031 156.761719 136.226562 C 157.128906 135.71875 158.101562 133.945312 158.125 133.402344 C 158.160156 132.625 158.101562 132.386719 157.3125 132.355469 C 156.089844 132.300781 155.234375 132.847656 154.160156 133.015625 C 153 133.199219 151.425781 132.332031 150.964844 131.246094 C 150.695312 130.609375 150.652344 129.789062 150.335938 129.140625 C 149.617188 128.054688 149.144531 126.964844 147.816406 126.503906 C 147.308594 126.332031 145.164062 126.007812 144.800781 126.230469 C 144.722656 126.285156 144.273438 127.097656 144.1875 127.28125 C 143.71875 128.332031 143.527344 129.777344 143.039062 130.824219 C 143.007812 130.898438 142.316406 131.757812 142.269531 131.78125 C 141.972656 131.972656 140.816406 132.265625 140.425781 132.3125 C 139.421875 132.421875 137.796875 131.789062 136.667969 131.910156 C 136.121094 131.96875 134.226562 132.289062 133.808594 132.476562 C 133.722656 132.511719 133.625 132.71875 133.378906 132.832031 C 133.109375 132.964844 132.761719 132.949219 132.457031 133.121094 C 131.304688 133.75 130.089844 135.347656 129.855469 136.644531 C 129.722656 137.34375 129.914062 139.378906 130.1875 140.027344 C 130.285156 140.265625 130.480469 140.347656 130.546875 140.460938 C 130.867188 141.058594 130.988281 141.589844 131.753906 141.875 C 132.921875 142.230469 134.109375 141.941406 135.304688 141.75 C 135.183594 140.523438 134.878906 139.425781 135.179688 138.199219 C 135.214844 138.027344 135.464844 137.292969 135.53125 137.199219 C 135.886719 136.648438 136.886719 135.453125 137.386719 135.042969 C 140.140625 132.769531 144.121094 133.214844 147.300781 133.921875 C 148.453125 134.175781 149.445312 134.320312 150.425781 135.09375 C 151.253906 135.75 151.332031 136.273438 151.65625 137.183594 C 151.734375 137.417969 151.96875 137.523438 151.988281 137.601562 C 152.011719 137.679688 151.886719 137.800781 151.90625 137.902344 C 152.039062 138.878906 151.917969 139.722656 151.175781 140.492188 C 149.957031 141.773438 146.445312 142.972656 144.746094 142.855469 C 144.3125 142.820312 142.472656 142.214844 142.285156 141.90625 C 142.101562 141.597656 141.898438 140.746094 142.261719 140.527344 C 142.796875 140.191406 144.574219 140.542969 145.300781 140.433594 C 146.589844 140.019531 147.734375 139.957031 148.683594 138.914062 C 149.246094 138.304688 148.617188 137.929688 147.992188 137.726562 C 147.121094 137.441406 142.789062 137.160156 141.863281 137.3125 C 140.984375 137.445312 139.050781 138.601562 139.058594 139.546875 C 139.070312 142.148438 142.296875 143.238281 144.429688 143.457031 C 146.769531 143.691406 147.925781 143.328125 150.121094 142.867188 C 150.390625 142.808594 150.613281 142.980469 150.882812 142.925781 C 151.859375 142.710938 154.328125 141.605469 155.050781 142.230469 C 155.277344 142.421875 155.371094 142.753906 155.410156 143.03125 C 155.574219 144.234375 154.140625 144.1875 153.382812 144.492188 C 151.691406 145.179688 149.816406 145.933594 148.101562 146.542969 C 146.949219 146.949219 145.210938 147.355469 144.023438 147.429688 C 141.890625 147.550781 139.324219 146.496094 137.707031 145.175781 C 137.332031 144.871094 137.609375 144.5 136.660156 144.988281 C 135.316406 145.695312 133.6875 146.195312 132.152344 146.230469 C 131.230469 146.25 129.417969 145.523438 128.679688 144.957031 C 127.9375 144.390625 127.859375 143.367188 126.898438 144.558594 C 126.007812 145.660156 125.125 147.632812 124.992188 149.070312 C 124.921875 149.890625 124.910156 151.484375 125.28125 152.179688 C 125.667969 152.898438 127.261719 153.347656 127.921875 153.871094 C 128.0625 153.984375 128.765625 154.71875 128.78125 154.777344 C 128.800781 154.847656 128.660156 154.984375 128.679688 155.097656 C 128.746094 155.398438 128.875 155.734375 128.890625 156.007812 C 128.902344 156.835938 128.402344 157.835938 128.449219 158.75 C 128.476562 159.09375 128.667969 159.390625 128.695312 159.679688 C 128.726562 159.972656 128.601562 160.167969 128.640625 160.445312 C 128.800781 161.605469 129.410156 161.570312 130.058594 162.226562 C 130.914062 163.089844 131.601562 164.097656 132.074219 165.230469 C 133.296875 164.945312 135.386719 165.046875 136.457031 165.765625 C 137.339844 166.355469 138.742188 167.777344 139.195312 168.722656 C 139.753906 169.878906 139.859375 171.542969 140.367188 172.722656 C 140.460938 172.9375 140.5 173.035156 140.742188 173.125 C 141.039062 173.234375 142.691406 173.375 143.011719 173.339844 C 143.578125 173.269531 145.1875 173.03125 145.632812 172.839844 C 145.726562 172.800781 145.8125 172.574219 146.0625 172.480469 C 147.417969 171.964844 148.625 172.074219 149.164062 170.417969 C 149.476562 169.429688 149.214844 168.253906 149.863281 167.429688 C 150.621094 166.464844 151.949219 166.082031 153.128906 165.839844 C 153.753906 165.710938 155.003906 165.78125 155.617188 165.65625 C 156.949219 165.378906 159.40625 164.652344 160.492188 163.964844 C 162.351562 162.789062 161.992188 160.429688 162.109375 158.503906 C 162.121094 158.277344 161.980469 158.050781 161.96875 157.828125 C 161.964844 157.703125 162.425781 156.515625 162.542969 156.363281 C 162.984375 155.789062 163.527344 155.558594 164.109375 155.242188 C 165.53125 154.480469 167.234375 154.042969 168.636719 153.167969 C 169.570312 152.59375 169.945312 152.078125 170.546875 151.234375 C 170.675781 151.058594 170.933594 151.023438 170.960938 150.972656 C 170.988281 150.921875 170.878906 150.6875 170.960938 150.484375 C 171.222656 149.84375 171.675781 149.039062 171.726562 148.320312 C 171.742188 148.007812 171.527344 147.523438 171.667969 147.089844 C 171.085938 146.101562 170.644531 144.9375 169.964844 144.023438 C 169.285156 143.109375 168.125 142.257812 167.472656 141.335938 C 167.332031 141.132812 167.398438 140.769531 167.15625 140.828125 C 167 141.246094 166.269531 141.265625 166.277344 141.734375 C 166.285156 142.585938 167.074219 144.023438 167.1875 145.015625 C 167.40625 147 166.097656 149.351562 164.53125 150.507812 C 162.507812 152.007812 158.5 152.96875 156.046875 153 C 155.207031 153.019531 155.613281 153.277344 155.589844 153.71875 C 155.519531 155.105469 154.804688 157.117188 153.820312 158.113281 C 153.070312 158.875 152.296875 159.300781 151.375 159.734375 C 151.273438 159.785156 151.195312 160 150.945312 160.09375 C 150.519531 160.257812 150.273438 160.0625 149.921875 160.109375 C 149.625 160.144531 149.339844 160.34375 148.992188 160.355469 C 147.613281 160.433594 146.449219 159.644531 145.199219 159.300781 L 141.246094 156.734375 C 140.667969 156.730469 139.171875 158.546875 138.546875 159.003906 C 137.863281 159.488281 136.675781 159.992188 135.835938 160.050781 C 135.535156 160.074219 134.960938 159.789062 134.640625 159.679688 C 134.546875 159.644531 134.386719 159.753906 134.324219 159.726562 C 134.289062 159.707031 134.226562 159.457031 134.0625 159.300781 C 133.964844 159.214844 133.757812 159.207031 133.621094 159.023438 C 133.507812 158.886719 133.160156 158.34375 133.09375 158.191406 C 132.339844 156.425781 131.96875 153.136719 132.417969 151.246094 C 132.730469 149.917969 133.214844 149.105469 134.660156 148.902344 C 136.246094 148.671875 135.195312 151.066406 135.128906 151.757812 C 135.050781 152.527344 135.191406 155.125 135.460938 155.730469 C 135.589844 156.035156 135.902344 156.113281 135.941406 156.476562 Z M 154.449219 129.078125 C 154.539062 129.128906 155.65625 128.679688 155.996094 128.632812 C 156.527344 128.546875 158.214844 128.585938 158.710938 128.75 C 159.039062 128.859375 160.269531 129.710938 160.375 129.679688 C 160.574219 129.625 160.824219 128.632812 160.859375 128.355469 C 161.039062 126.9375 160.714844 124.8125 159.210938 124.253906 C 158.101562 123.84375 156.855469 123.902344 155.765625 124.34375 C 155.210938 124.570312 154.371094 125.164062 153.800781 125.445312 C 153.585938 125.550781 153.019531 125.59375 152.960938 125.6875 C 152.878906 125.804688 153.230469 125.875 153.285156 126 C 153.484375 126.433594 153.8125 126.976562 153.953125 127.3125 C 154.089844 127.644531 154.363281 129.039062 154.464844 129.097656 Z M 108.386719 187.894531 C 108.386719 187.894531 107.773438 188.554688 107.46875 188.683594 C 106.730469 189.003906 105.378906 189.359375 104.636719 189.113281 C 102.851562 188.515625 102.558594 185.71875 102.714844 184.0625 C 103.027344 180.664062 107.128906 170.792969 109.660156 168.613281 C 109.875 168.433594 110.90625 167.746094 111.128906 167.636719 C 111.917969 167.292969 112.75 167.332031 113.5625 167.589844 C 113.878906 167.691406 114.234375 168.144531 114.550781 167.945312 C 115.128906 167.019531 116.023438 166.207031 116.621094 165.3125 C 117.378906 164.164062 118.359375 161.886719 118.40625 160.539062 C 118.414062 160.332031 118.300781 160.097656 118.277344 159.859375 C 118.257812 159.757812 118.382812 159.636719 118.359375 159.558594 C 118.339844 159.480469 118.167969 159.441406 118.128906 159.347656 C 118.03125 159.121094 117.992188 158.863281 117.886719 158.691406 C 117.824219 158.582031 116.644531 157.929688 116.515625 157.933594 C 116.175781 157.933594 115.019531 158.296875 114.628906 158.453125 C 113.648438 158.832031 112.480469 159.671875 111.492188 160.101562 C 111 160.320312 110.378906 160.457031 109.882812 160.222656 C 109.5625 160.070312 109.179688 159.402344 108.753906 159.40625 C 108.261719 159.410156 106.042969 160.113281 105.445312 160.335938 C 101.464844 161.832031 97.644531 165.472656 96.035156 169.449219 C 95.195312 171.535156 95.550781 174.15625 95.8125 176.289062 C 95.890625 176.898438 96.308594 178.003906 96.128906 178.644531 C 95.8125 179.78125 94.785156 180.355469 94.140625 181.125 C 92.265625 183.394531 90.730469 186.078125 90.585938 189.097656 C 90.519531 190.398438 90.699219 192.054688 91.21875 193.238281 C 91.535156 193.960938 92.363281 193.914062 93.007812 193.621094 C 94.175781 193.09375 95.441406 192.035156 96.65625 192.027344 C 97.359375 192.015625 97.128906 191.847656 97.160156 191.550781 C 97.25 190.894531 97.457031 190.238281 97.554688 189.582031 C 97.792969 188.027344 97.929688 186.386719 98.300781 184.828125 C 98.871094 182.433594 99.980469 179.96875 100.796875 178.058594 C 100.933594 177.722656 102.4375 175.632812 102.644531 175.5 C 102.816406 175.398438 103.859375 175.085938 103.917969 175.113281 C 103.996094 175.152344 104.152344 175.847656 104.085938 176.097656 C 103.949219 176.585938 103.304688 177.359375 103.0625 177.921875 C 100.933594 182.8125 99.953125 188.195312 100.542969 193.589844 C 100.9375 193.773438 100.886719 194.195312 101.054688 194.476562 C 101.457031 195.128906 103.101562 194.765625 103.800781 194.851562 C 104.097656 194.433594 104.714844 194.246094 105.066406 193.953125 C 106.378906 192.871094 106.984375 191.148438 107.867188 189.730469 C 107.835938 189.367188 108.667969 188.09375 108.359375 187.914062 Z M 106.152344 185.476562 C 106.410156 185.636719 109.859375 181.515625 110.425781 181.183594 C 110.761719 178.714844 111.660156 175.894531 111.867188 173.425781 C 111.960938 172.265625 111.9375 171.558594 111.074219 172.789062 C 109.082031 175.625 107.808594 179.585938 106.535156 182.804688 C 106.523438 183.242188 105.929688 185.335938 106.152344 185.476562 Z M 112.210938 189.613281 C 112.492188 189.738281 114.097656 188.601562 114.417969 188.351562 C 117.234375 186.109375 120.632812 180.339844 120.234375 176.652344 C 119.941406 173.929688 118.09375 173.03125 115.785156 172.203125 L 115.011719 176.9375 C 115.046875 177.140625 115.0625 177.339844 115.027344 177.542969 C 114.371094 181.617188 113.570312 185.699219 112.21875 189.601562 Z M 107.859375 196.757812 C 107.859375 196.757812 107.09375 197.40625 106.894531 197.515625 C 106.617188 197.671875 105.839844 198.085938 105.59375 198.1875 C 103.5625 198.996094 100.746094 198.933594 98.984375 197.527344 C 98.707031 197.296875 98.527344 196.890625 98.242188 196.71875 C 97.351562 199.160156 96.144531 204.128906 99.203125 205.40625 C 100.816406 206.085938 101.957031 205.445312 103.253906 204.457031 C 104.949219 203.15625 106.800781 200.679688 107.511719 198.664062 C 107.621094 198.34375 108.070312 196.898438 107.863281 196.769531 Z M 107.859375 196.757812 " fill-opacity="1" fill-rule="nonzero"/></g></g></g><g clip-path="url(#ac3e3dc289)"><g clip-path="url(#d881fdaf49)"><g clip-path="url(#e8ad31ead7)"><path fill="#c13c35" d="M 84.726562 109.199219 C 84.726562 109.199219 85.167969 109.09375 85.304688 109.019531 C 86.292969 108.4375 87.605469 107.035156 88.5 106.609375 C 88.882812 106.421875 89.304688 106.40625 89.65625 106.253906 C 90.09375 106.0625 90.304688 105.691406 91.003906 105.589844 C 95.425781 104.96875 99.855469 107.132812 102.523438 110.644531 C 108.183594 118.121094 106.503906 130.101562 101.882812 137.675781 C 101.253906 138.710938 100.667969 138.867188 100.640625 140.359375 C 100.582031 143.054688 100.957031 145.765625 100.609375 148.492188 C 100.054688 152.835938 96.941406 159.429688 92.65625 161.195312 C 90.875 161.933594 88.871094 161.761719 87.023438 162.015625 C 86.898438 162.03125 86.777344 161.875 86.710938 161.894531 C 86.640625 161.914062 86.125 162.871094 86.03125 163.09375 C 85.453125 164.316406 85.085938 165.785156 84.476562 167.007812 C 83.132812 169.679688 80.410156 172.5 77.359375 173.027344 C 76.625 173.152344 75.097656 172.960938 74.339844 172.730469 C 72.714844 172.246094 70.492188 170.347656 69.457031 168.976562 C 67.976562 167.015625 66.328125 163.664062 66.207031 161.269531 C 66.15625 160.3125 67.386719 158.878906 68.261719 159.652344 C 68.929688 160.238281 68.867188 161.175781 69.183594 161.9375 C 70.015625 163.941406 72.175781 167.066406 73.988281 168.359375 C 75.371094 169.347656 77.121094 169.347656 78.628906 168.53125 C 79.597656 168.003906 81.066406 165.4375 81.558594 164.390625 C 82.164062 163.082031 82.472656 161.5625 83.042969 160.238281 C 83.683594 158.75 84.648438 157.917969 86.277344 157.640625 C 87.101562 157.5 88.441406 157.710938 89.304688 157.558594 C 89.894531 157.453125 91.164062 157.109375 91.691406 156.875 C 92.164062 156.664062 93.601562 155.054688 93.957031 154.546875 C 96.921875 150.375 97.132812 146.351562 96.851562 141.4375 C 96.761719 139.875 96.179688 138.109375 97.117188 136.613281 C 98.328125 134.664062 99.308594 133.132812 100.085938 130.902344 C 102.34375 124.390625 102.714844 113.460938 95.097656 110.441406 C 94.0625 110.035156 92.152344 110.039062 91.0625 110.183594 C 89.113281 110.457031 90.335938 110.808594 90.988281 111.402344 C 91.597656 111.960938 92.402344 113.171875 92.777344 113.917969 C 95.003906 118.390625 94.15625 123.683594 92.109375 128.070312 C 91.914062 128.5 90.839844 130.15625 90.84375 130.355469 C 90.84375 130.730469 91.417969 130.789062 91.671875 131.003906 C 92.984375 132.121094 93.707031 133.515625 94.457031 134.976562 C 94.5625 135.191406 94.363281 135.429688 94.421875 135.710938 C 94.722656 137.234375 94.789062 138.734375 94.4375 140.285156 C 93.550781 144.148438 91.289062 147.671875 87.335938 148.894531 C 86.277344 148.878906 85.308594 148.964844 84.253906 148.710938 C 83.933594 148.632812 82.855469 148.121094 82.777344 148.144531 C 82.394531 148.253906 82.523438 149.96875 82.488281 150.371094 C 82.152344 153.734375 81.734375 158.394531 78.578125 160.335938 C 78.332031 160.492188 77.730469 160.847656 77.511719 160.941406 C 75.394531 161.847656 72.441406 160.574219 71.152344 158.757812 C 69.375 156.257812 68.78125 152.445312 69.875 149.558594 C 69.960938 149.308594 70.488281 148.582031 70.453125 148.496094 C 70.441406 148.457031 69.949219 148.074219 69.808594 147.882812 C 67.277344 144.359375 67.488281 138.367188 68.449219 134.257812 C 69.414062 130.148438 72.003906 124.269531 75.898438 122.476562 C 76.152344 122.359375 76.925781 122.265625 76.972656 122.167969 C 77.003906 122.09375 77.054688 120.96875 77.15625 120.578125 C 77.675781 118.558594 78.863281 115.089844 80.101562 113.453125 C 80.320312 113.167969 81.726562 111.980469 81.65625 111.726562 L 79.882812 109.535156 C 79.476562 109.425781 78.65625 108.722656 78.339844 108.730469 C 78.125 108.726562 77.902344 108.855469 77.664062 108.871094 C 77.230469 108.886719 76.9375 108.757812 76.378906 109.003906 C 71.347656 111.253906 69.550781 116.445312 68.902344 121.574219 C 68.777344 122.582031 69 124.171875 68.328125 125.035156 C 67.613281 125.96875 66.640625 126 65.765625 126.402344 C 62.699219 127.808594 61.3125 131.742188 61.480469 134.96875 C 61.496094 135.316406 61.695312 135.601562 61.730469 135.902344 C 61.761719 136.203125 61.597656 136.441406 61.675781 136.675781 C 61.746094 136.929688 61.992188 137 62.046875 137.113281 C 62.328125 137.765625 62.425781 138.21875 62.867188 138.851562 C 64.105469 140.609375 66.679688 141.019531 65.675781 143.839844 C 65.289062 144.933594 64.285156 146.011719 63.742188 146.945312 C 62.769531 148.613281 61.1875 151.128906 61.046875 153.015625 C 60.976562 154.03125 61.300781 157.800781 62.519531 157.800781 C 62.882812 157.804688 63.226562 157.40625 63.484375 157.152344 C 64.480469 156.160156 65.210938 154.691406 66.21875 153.695312 C 66.695312 153.464844 67.488281 153.214844 67.671875 153.898438 C 67.730469 154.105469 67.640625 155.15625 67.570312 155.429688 C 67.277344 156.605469 65.601562 159.242188 64.648438 159.976562 C 64.046875 160.4375 62.933594 160.90625 62.175781 160.953125 C 62.03125 160.964844 60.605469 160.539062 60.464844 160.453125 C 59.660156 159.925781 59.09375 159.105469 58.671875 158.300781 C 56.882812 154.941406 57.117188 151.671875 58.628906 148.289062 C 58.898438 147.21875 61.558594 144.105469 61.5625 143.347656 C 61.5625 142.78125 61.128906 142.796875 60.851562 142.503906 C 60.019531 141.65625 58.761719 140.246094 58.316406 139.175781 C 55.953125 133.441406 57.941406 125.558594 63.71875 122.667969 C 63.992188 122.539062 64.71875 122.390625 64.746094 122.339844 C 64.800781 122.238281 64.71875 120.792969 64.761719 120.457031 C 65.480469 113.867188 69.507812 105.644531 76.601562 104.328125 C 77 104.257812 78.671875 104.140625 79.074219 104.164062 C 79.839844 104.21875 81.375 104.886719 81.996094 105.339844 C 82.953125 106.035156 84.019531 107.511719 84.59375 108.550781 C 84.6875 108.71875 84.691406 109.113281 84.769531 109.152344 Z M 78.722656 135.496094 C 79.027344 135.183594 79.355469 134.644531 79.515625 134.246094 C 80.3125 132.253906 80.59375 128.042969 79.605469 126.167969 C 78.910156 124.863281 77.363281 125.941406 76.597656 126.660156 C 74.183594 128.957031 72.550781 134.484375 72.25 137.773438 C 72.066406 139.738281 72.425781 143.703125 73.628906 145.246094 C 74.660156 146.570312 75.214844 145.601562 76.222656 144.949219 C 77.699219 144 78.976562 142.875 80.222656 141.597656 C 80.386719 141.421875 80.433594 141.070312 80.667969 140.851562 C 80.792969 140.730469 81.570312 140.273438 81.75 140.273438 C 81.988281 140.28125 82.753906 140.890625 82.890625 141.109375 C 83.171875 141.539062 82.226562 142.699219 82.421875 143.015625 C 82.503906 143.140625 82.992188 143.289062 83.183594 143.4375 C 83.335938 143.554688 83.40625 143.757812 83.546875 143.84375 C 85.800781 145.332031 87.667969 145.070312 89.277344 142.835938 C 89.925781 141.9375 90.839844 139.324219 90.980469 138.214844 C 91.140625 136.984375 90.9375 134.867188 89.957031 134.058594 C 89.300781 133.523438 88.058594 132.992188 87.445312 132.488281 C 87.179688 132.273438 86.671875 131.621094 86.492188 131.332031 C 85.851562 130.253906 88.148438 127.140625 88.652344 126 C 89.878906 123.214844 90.710938 118.792969 89.460938 115.894531 C 89.371094 115.695312 88.632812 114.574219 88.492188 114.414062 C 88.378906 114.285156 87.746094 113.902344 87.597656 113.871094 C 87.449219 113.835938 86.488281 113.804688 86.433594 113.832031 C 86.171875 113.992188 86.25 114.566406 86.082031 114.839844 C 85.675781 115.46875 84.640625 115.839844 84.027344 115.300781 C 82.171875 117.425781 80.886719 119.75 80.070312 122.4375 C 80.292969 122.609375 80.636719 122.691406 80.828125 122.851562 C 83.113281 124.734375 83.078125 131.628906 82.066406 134.277344 C 81.507812 135.742188 80.253906 137.929688 78.425781 137.246094 C 78.019531 137.085938 77.253906 136.21875 77.253906 135.800781 C 77.257812 135.042969 78.46875 134.460938 78.695312 135.503906 Z M 72.972656 150.207031 L 72.949219 152.679688 C 73.28125 153.917969 73.136719 154.855469 73.882812 155.933594 C 74.15625 156.324219 74.917969 157.085938 75.378906 157.167969 C 75.449219 157.179688 76.3125 157.175781 76.359375 157.152344 C 76.71875 156.964844 77.457031 155.703125 77.628906 155.261719 C 78.195312 153.847656 78.5625 151.222656 78.671875 149.675781 C 78.691406 149.371094 78.75 147.839844 78.671875 147.789062 C 78.582031 147.726562 77.394531 149.167969 77.097656 149.402344 C 76.417969 149.929688 75.363281 150.457031 74.488281 150.507812 C 74.269531 150.515625 73.003906 150.121094 72.96875 150.195312 Z M 72.972656 150.207031 " fill-opacity="1" fill-rule="nonzero"/></g></g></g><g clip-path="url(#931764b023)"><g clip-path="url(#ffafd60b7e)"><g clip-path="url(#1ca159c6e9)"><path fill="#c13c35" d="M 193.527344 82.53125 C 193.527344 82.53125 193.613281 82.824219 193.785156 82.945312 C 194.363281 83.355469 194.820312 83.578125 195.273438 84.21875 C 195.722656 84.855469 196.453125 86.171875 196.554688 86.859375 C 196.675781 87.6875 196.882812 88.480469 197 89.292969 C 197.1875 90.648438 196.707031 92.441406 196.800781 93.757812 C 196.8125 93.957031 196.972656 94.550781 197.007812 94.5625 C 197.082031 94.59375 198.316406 94.390625 198.59375 94.394531 C 204.140625 94.496094 208.671875 97.25 208.722656 103.332031 C 208.726562 104.28125 208.101562 106.488281 207.582031 107.277344 C 206.230469 109.296875 203.429688 110.019531 201.703125 111.777344 C 201.546875 111.9375 201.460938 112.273438 201.257812 112.523438 C 201.191406 112.59375 200.910156 112.621094 200.722656 112.824219 C 200.410156 113.140625 199.953125 115.042969 199.609375 115.589844 C 198.996094 116.578125 197.253906 118.425781 196.207031 118.875 C 194.859375 119.453125 192.757812 119.867188 191.34375 119.367188 C 190.40625 119.039062 188.089844 117.066406 187.261719 116.3125 C 185.425781 114.632812 183.941406 112.667969 182.417969 110.703125 C 181.976562 110.136719 181.261719 109.765625 181.207031 108.980469 C 181.199219 108.84375 181.445312 108.59375 181.257812 108.316406 C 181.921875 108.09375 182.339844 107.875 182.929688 108.335938 C 185.511719 111.265625 188.171875 114.128906 191.472656 116.253906 C 191.695312 116.246094 192.03125 116.414062 192.1875 116.402344 C 192.816406 116.359375 194.175781 115.660156 194.601562 115.183594 C 194.96875 114.789062 195.695312 112.96875 195.730469 112.425781 C 195.789062 111.480469 195.335938 109.753906 194.980469 108.820312 C 194.332031 107.074219 192.804688 104.171875 191.632812 102.664062 C 190.527344 101.230469 187.808594 98.648438 186.203125 100.59375 C 185.59375 101.335938 185.707031 101.914062 185.773438 102.738281 C 185.867188 104.109375 186.152344 104.804688 186.785156 106.03125 L 189.472656 109.261719 C 190.269531 109.214844 189.738281 108.628906 189.679688 108.082031 C 189.460938 106.285156 189.1875 105.671875 188.476562 104.050781 C 188.386719 103.851562 188.246094 102.503906 188.28125 102.441406 C 188.34375 102.328125 189.261719 101.839844 189.503906 101.832031 C 189.804688 101.832031 190.601562 102.863281 190.761719 103.160156 C 191.640625 104.773438 192.527344 107.710938 192.65625 109.53125 C 192.671875 109.773438 192.789062 109.996094 192.785156 110.199219 C 192.695312 112.335938 191.066406 113.648438 188.972656 112.863281 C 188.589844 112.71875 187.40625 111.691406 187.027344 111.339844 C 183.878906 108.371094 180.015625 102.320312 182.964844 98.207031 C 183.832031 96.996094 184.546875 96.769531 185.8125 96.203125 C 185.910156 96.164062 185.996094 95.945312 186.246094 95.84375 C 186.519531 95.722656 187.632812 95.625 187.957031 95.640625 C 189.933594 95.722656 191.5625 96.886719 193.296875 97.65625 C 193.363281 97.171875 192.730469 96.679688 192.707031 96.449219 C 192.53125 94.066406 193.167969 89.710938 192.179688 87.636719 C 192.089844 87.4375 191.527344 86.714844 191.292969 86.714844 C 190.910156 86.71875 190.320312 87.148438 189.992188 87.378906 C 188.273438 88.609375 186.375 91.515625 185.402344 93.394531 C 185.140625 93.898438 185.082031 94.621094 184.640625 95.164062 C 184.03125 95.902344 182.464844 96.355469 181.554688 96.050781 C 180.324219 95.636719 179.304688 94.539062 177.972656 94.25 C 176.824219 94.003906 176.394531 94.03125 176.257812 95.300781 C 176.109375 96.644531 176.300781 97.933594 176.558594 99.238281 C 176.9375 101.15625 177.945312 101.945312 178.605469 103.539062 C 178.769531 103.929688 179.191406 105.324219 179.195312 105.664062 C 179.199219 105.789062 178.824219 106.421875 178.714844 106.589844 C 178.082031 107.476562 177.046875 108.363281 176.417969 109.292969 C 175.425781 110.78125 175 112.152344 176.183594 113.679688 C 177.136719 114.914062 180.28125 116.496094 181.8125 116.800781 C 182.921875 117.027344 184.230469 116.820312 185.359375 117.222656 C 186.867188 117.761719 187.683594 119.296875 187.898438 120.816406 C 188.046875 121.851562 187.875 123.375 187.96875 124.445312 C 187.984375 124.6875 188.8125 125.667969 188.929688 126.039062 C 189.636719 126.015625 190.441406 126.46875 191.214844 126.382812 C 193.121094 126.175781 194.183594 124.1875 195.644531 123.113281 C 196.808594 122.746094 198.320312 123.019531 199.078125 124.058594 C 199.46875 124.609375 199.875 125.644531 200.261719 126.214844 C 200.582031 126.691406 202.214844 129.144531 202.699219 129.007812 C 202.796875 128.976562 203.636719 127.402344 203.710938 127.179688 C 204.855469 123.921875 202.832031 120.417969 202.042969 117.304688 C 202.050781 116.363281 202.410156 116.535156 203.269531 116.289062 C 203.847656 117.265625 204.78125 118.203125 205.347656 119.171875 C 207.34375 122.589844 208.371094 127.429688 205.65625 130.835938 C 205.46875 131.070312 204.121094 132.355469 203.925781 132.464844 C 202.953125 133.011719 200.796875 132.519531 199.925781 131.84375 C 198.933594 130.792969 197.878906 129.773438 197.0625 128.566406 C 196.179688 128.640625 195.710938 129.511719 194.992188 129.898438 C 193.949219 130.464844 192.128906 130.851562 190.949219 130.804688 C 189.773438 130.757812 188.539062 130.21875 187.382812 130.058594 C 186.152344 130.785156 184.664062 132.742188 183.449219 133.261719 C 181.007812 134.316406 177.589844 133.34375 176.066406 131.125 C 175.828125 130.777344 175.109375 129.542969 174.960938 129.179688 C 174.320312 127.613281 174.101562 125.59375 173.46875 123.984375 C 173.25 123.628906 170.398438 123.597656 169.625 123.382812 C 168.277344 123.011719 166.460938 121.78125 165.851562 120.507812 C 165.636719 120.054688 165.613281 119.539062 165.429688 119.113281 C 165.320312 118.855469 165.078125 118.753906 164.972656 118.496094 C 164.597656 117.601562 164.179688 114.144531 164.222656 113.097656 C 164.289062 111.476562 165.496094 109.742188 164.859375 108.269531 C 164.742188 108.003906 164.5 107.902344 164.40625 107.652344 C 163.898438 106.253906 163.339844 104.0625 163.25 102.628906 C 163.210938 101.933594 163.769531 100.355469 164.191406 99.773438 C 164.902344 98.769531 166.757812 97.457031 167.964844 97.269531 C 168.832031 97.136719 170.003906 97.011719 170.910156 96.976562 C 171.34375 96.957031 172.125 97.226562 172.488281 97.003906 C 172.949219 96.71875 172.511719 96.015625 172.507812 95.621094 C 172.503906 94.9375 172.597656 93.417969 172.820312 92.808594 C 172.996094 92.320312 173.917969 91.167969 174.339844 90.867188 C 174.5 90.746094 174.773438 90.742188 174.976562 90.628906 C 175.085938 90.566406 175.171875 90.371094 175.410156 90.269531 C 175.644531 90.171875 176.109375 90.039062 176.375 89.992188 C 177.34375 89.84375 179.015625 90.011719 179.9375 90.386719 C 180.265625 90.527344 181.125 91.144531 181.308594 91.148438 C 181.691406 91.144531 182.484375 89.269531 182.796875 88.796875 C 183.839844 87.21875 186.039062 84.554688 187.582031 83.492188 C 187.867188 83.292969 189.613281 82.355469 189.738281 82.339844 C 189.851562 82.328125 189.988281 82.46875 190.085938 82.441406 C 190.75 82.304688 191.574219 82.003906 192.238281 82.132812 C 192.53125 82.1875 192.75 82.421875 193.015625 82.527344 C 193.21875 82.609375 193.453125 82.496094 193.503906 82.527344 Z M 173.1875 99.886719 C 173.1875 99.886719 172.652344 100.0625 172.378906 100.078125 C 170.59375 100.214844 169.160156 99.722656 167.527344 101.023438 C 167.347656 101.171875 167.339844 101.375 167.25 101.464844 C 167.09375 101.628906 166.832031 101.691406 166.820312 101.71875 C 166.777344 101.792969 166.734375 103.203125 166.761719 103.378906 C 166.917969 104.359375 167.539062 105.738281 167.957031 106.644531 C 168.15625 107.078125 169.011719 108.230469 169.023438 108.597656 C 169.03125 109.183594 169.15625 109.882812 169.027344 110.390625 C 168.871094 110.96875 168.363281 111.765625 168.203125 112.316406 C 167.695312 114.074219 168.082031 116.246094 168.425781 118.027344 C 168.847656 118.75 169.257812 119.175781 169.902344 119.671875 C 169.984375 119.734375 169.976562 119.929688 170.027344 119.964844 C 170.082031 120.003906 170.25 119.882812 170.347656 119.917969 C 172.414062 120.691406 175.328125 119.691406 176.667969 121.816406 C 176.78125 121.996094 177.246094 122.90625 177.332031 123.128906 C 178.042969 124.929688 178.207031 127.988281 179.71875 129.242188 C 180.953125 130.265625 182.753906 130.066406 184.160156 129.5 C 184.402344 129.410156 184.480469 129.207031 184.589844 129.144531 C 184.824219 129.023438 185.359375 128.921875 185.382812 128.882812 C 185.546875 128.613281 184.136719 127.042969 183.949219 126.617188 C 183.5625 125.714844 183.292969 123.996094 183.210938 123.007812 C 183.164062 122.464844 183.523438 121.089844 182.871094 121.386719 C 179.367188 120.699219 174.890625 118.984375 172.742188 115.960938 C 172.132812 115.113281 172.148438 114.566406 171.804688 113.703125 C 171.691406 113.425781 171.410156 113.335938 171.335938 113.078125 C 171.261719 112.824219 171.433594 112.601562 171.390625 112.304688 C 171.347656 112.007812 171.15625 111.710938 171.132812 111.367188 C 171.105469 110.902344 171.824219 109.136719 172.140625 108.75 C 172.695312 108.046875 174.164062 106.949219 174.941406 106.320312 C 175.324219 106.007812 175.878906 105.644531 176.308594 105.382812 C 176.292969 104.78125 175.769531 104.589844 175.480469 104.179688 C 174.566406 102.863281 174.261719 102.054688 173.671875 100.632812 C 173.628906 100.527344 173.226562 99.90625 173.1875 99.886719 Z M 202.617188 99.886719 C 202.140625 100.078125 201.867188 99.644531 201.515625 99.542969 C 199.699219 99.019531 198.480469 99.199219 196.71875 99.234375 C 196.410156 99.238281 194.707031 98.734375 194.660156 98.835938 L 196.902344 101.425781 C 198.046875 103.371094 199.355469 105.289062 200.183594 107.34375 C 200.371094 107.8125 200.433594 108.402344 200.628906 108.894531 C 202.984375 106.398438 205.511719 105.054688 203.792969 101.195312 C 203.542969 100.613281 202.863281 100.445312 202.632812 99.894531 Z M 202.617188 99.886719 " fill-opacity="1" fill-rule="nonzero"/></g></g></g><g clip-path="url(#e5bbd4ac9a)"><g clip-path="url(#bbd1029532)"><g clip-path="url(#4c152ffcff)"><path fill="#c13c35" d="M 131.578125 72.675781 C 131.6875 72.753906 132.273438 71.484375 132.621094 71.394531 C 133.953125 71.054688 134.289062 70.148438 135.382812 69.308594 C 137.335938 67.820312 140.351562 66.695312 142.722656 66.367188 C 146.640625 65.816406 150.503906 66.328125 153.492188 69.183594 C 158.582031 74.070312 158.304688 81.386719 155.851562 87.589844 C 156.144531 88.242188 156.40625 88.96875 156.699219 89.609375 C 157.542969 91.429688 158.179688 92.417969 158.351562 94.546875 C 158.667969 98.394531 155.875 102.410156 152.886719 104.648438 C 150.492188 106.445312 147.035156 108.15625 144.109375 108.75 C 143.796875 108.820312 142.457031 108.683594 142.273438 109.011719 C 142.253906 109.058594 142.414062 109.347656 142.394531 109.574219 C 142.277344 111.957031 141.371094 114.417969 139.480469 115.921875 C 134.976562 119.492188 128.5625 119.316406 123.585938 117.078125 C 123.109375 116.863281 121.742188 115.867188 121.386719 116.042969 C 121.101562 116.191406 119.804688 117.621094 119.503906 117.984375 C 118.863281 118.765625 117.296875 121.042969 116.921875 121.929688 C 116.414062 123.097656 115.636719 124.773438 115.113281 126.292969 C 114.53125 127.976562 114.1875 129.75 113.652344 131.453125 C 113.941406 132.351562 114.304688 131.230469 114.527344 130.941406 C 116.03125 128.964844 116.757812 127.335938 118.035156 125.324219 C 118.636719 124.371094 119.398438 123.148438 120.199219 122.148438 C 120.355469 121.953125 120.476562 121.484375 120.621094 121.386719 C 121.097656 121.078125 121.648438 121.402344 121.660156 121.964844 C 121.667969 122.730469 120.382812 124.574219 119.972656 125.40625 C 118.429688 128.539062 117.117188 130.808594 115.335938 133.785156 C 114.796875 134.699219 114.253906 135.664062 113.851562 136.644531 L 115.746094 135.203125 C 118.070312 132.347656 120.574219 129.695312 122.484375 126.605469 C 123.878906 124.335938 124.898438 121.824219 126.515625 119.691406 C 126.894531 119.414062 127.734375 119.546875 127.96875 119.914062 C 128.433594 120.644531 127.234375 122.195312 126.914062 122.898438 C 125.339844 126.253906 123.425781 129.472656 121.820312 132.804688 C 119.75 137.136719 116.273438 141.082031 111.683594 142.90625 C 109.621094 143.722656 108.011719 143.203125 107.664062 140.878906 C 109.019531 135.644531 109.769531 130.058594 111.644531 124.992188 C 112.75 122.007812 114.570312 118.835938 116.628906 116.417969 C 116.804688 116.21875 117.085938 116 117.351562 115.921875 L 116.367188 115.726562 C 113.589844 116.3125 110.78125 114.941406 109.425781 112.449219 C 109.308594 112.226562 109.28125 111.839844 109.136719 111.527344 C 109.101562 111.433594 108.871094 111.347656 108.78125 111.097656 C 108.152344 109.507812 108.152344 106.164062 109.273438 104.796875 C 109.851562 104.097656 110.28125 104.101562 111.132812 104.144531 C 111.117188 104.457031 111.515625 104.609375 111.527344 104.660156 C 111.601562 104.90625 111.109375 106.03125 111.046875 106.367188 C 110.988281 106.671875 110.882812 107.429688 110.914062 107.6875 C 111.113281 109.488281 112.488281 111.738281 114.269531 112.335938 C 116.054688 112.933594 118.03125 111.683594 119.769531 111.382812 C 120.320312 111.289062 121.699219 111.375 122.246094 111.570312 C 123.496094 112.011719 125.082031 113.1875 126.433594 113.695312 C 128.699219 114.550781 130.835938 115.003906 133.179688 114.433594 C 133.417969 114.367188 133.621094 114.519531 133.699219 114.5 C 133.777344 114.476562 133.882812 114.242188 134.105469 114.167969 C 135.457031 113.746094 136.851562 113.398438 137.785156 112.222656 C 138.640625 111.144531 138.730469 109.15625 138.789062 107.804688 C 138.796875 107.578125 138.636719 107.347656 138.648438 107.128906 C 138.742188 105.609375 140.246094 104.824219 141.609375 104.582031 C 141.894531 104.53125 142.109375 104.695312 142.371094 104.640625 C 146.429688 103.71875 152.507812 100.507812 153.789062 96.234375 C 154.191406 94.890625 154.144531 93.878906 153.636719 92.550781 C 153.542969 92.300781 153.316406 92.214844 153.277344 92.121094 C 152.21875 89.660156 151.046875 88.332031 151.625 85.484375 C 152.207031 82.640625 153.351562 80.207031 152.804688 77.183594 C 152.507812 75.5625 151.433594 73.265625 150.207031 72.15625 C 149.988281 71.960938 149.023438 71.277344 148.765625 71.160156 C 146.167969 69.996094 143.050781 70.136719 140.421875 71.128906 C 138.851562 71.71875 136.488281 73.304688 134.960938 74.265625 C 134.335938 74.660156 134.28125 75.167969 133.191406 75.234375 C 132.800781 75.261719 131.640625 74.601562 131.601562 74.6875 C 131.582031 74.726562 131.648438 75.261719 131.566406 75.5625 C 131.359375 76.296875 131.015625 76.511719 130.25 76.59375 C 130.21875 76.601562 129.613281 76.5625 129.582031 76.539062 C 129.554688 76.515625 129.203125 76.03125 129.183594 76.003906 C 128.574219 74.738281 128.660156 73.410156 127.746094 72.125 C 127.425781 71.671875 126.15625 70.523438 125.644531 70.53125 C 125.371094 70.535156 125.054688 70.699219 124.734375 70.738281 C 124.609375 70.753906 124.421875 70.582031 124.167969 70.65625 C 123.949219 70.71875 122.972656 71.480469 122.800781 71.699219 C 122.167969 72.46875 121.640625 73.785156 121.058594 74.519531 C 120.402344 75.347656 119.339844 75.8125 118.285156 75.925781 C 118.035156 75.953125 117.441406 75.78125 117.167969 75.789062 C 114.609375 75.914062 111.992188 75.910156 109.566406 76.90625 C 108.289062 77.433594 105.300781 80.074219 104.714844 81.375 C 104.394531 82.074219 104.34375 82.828125 104.726562 83.527344 C 105.21875 84.433594 107.113281 85.5625 107.53125 86.351562 C 108.335938 87.847656 107.871094 88.75 107.089844 90.042969 C 106.996094 90.199219 106.769531 90.261719 106.683594 90.40625 C 106.191406 91.230469 104.839844 93.390625 104.960938 94.21875 C 105.238281 96.148438 106.753906 97.078125 108.242188 98.015625 C 108.425781 98.132812 108.4375 98.40625 108.503906 98.441406 C 108.628906 98.511719 109.835938 98.957031 110.214844 99.125 C 110.421875 99.214844 110.664062 99.089844 110.710938 99.109375 C 110.75 99.128906 111.148438 99.730469 111.199219 99.84375 C 111.289062 100.042969 111.527344 100.871094 111.496094 100.910156 C 111.46875 100.960938 111.269531 100.933594 111.179688 101.035156 C 111 101.226562 110.929688 101.535156 110.792969 101.617188 C 110.316406 101.925781 108.410156 101.542969 107.78125 101.351562 C 106.378906 100.933594 103.914062 99.421875 102.867188 98.375 C 102.496094 98.003906 101.777344 97.183594 101.585938 96.738281 C 100.996094 95.351562 100.925781 92.914062 101.5 91.5 C 101.773438 90.8125 103.421875 88.355469 103.425781 87.988281 C 103.429688 87.488281 101.847656 86.136719 101.460938 85.460938 C 100.882812 84.453125 100.636719 83.082031 100.707031 81.910156 C 100.84375 79.414062 103.242188 76.707031 105.132812 75.214844 C 109.121094 72.046875 112.339844 72.222656 117.027344 71.707031 C 117.277344 71.679688 117.582031 71.921875 118.050781 71.625 C 118.160156 71.5625 119.128906 69.917969 119.394531 69.585938 C 120.578125 68.132812 121.742188 67.277344 123.644531 66.945312 C 124.203125 66.847656 126.121094 66.988281 126.722656 67.113281 C 127.667969 67.3125 128.628906 67.878906 129.304688 68.550781 C 129.882812 69.121094 130.789062 70.34375 131.09375 71.066406 C 131.234375 71.398438 131.421875 72.542969 131.539062 72.613281 Z M 131.578125 72.675781 " fill-opacity="1" fill-rule="nonzero"/></g></g></g><g clip-path="url(#a516ec2ba8)"><g clip-path="url(#79e7c43c08)"><g clip-path="url(#663e00878e)"><path fill="#c13c35" d="M 140.761719 48.527344 C 141.550781 47.554688 141.980469 46.339844 142.652344 45.292969 C 146.035156 40.019531 150.804688 36.117188 155.617188 32.183594 C 156.4375 31.507812 158.183594 29.640625 158.925781 29.246094 C 159.210938 29.089844 160.242188 28.769531 160.542969 28.78125 C 160.660156 28.777344 161.851562 29.4375 161.914062 29.539062 C 162.867188 31.070312 162.03125 32.847656 161.839844 34.449219 C 161.046875 41.039062 159.929688 45.695312 157.039062 51.671875 C 154.578125 56.746094 150.527344 59.800781 147.703125 64.199219 C 147.1875 65.007812 147.480469 65.90625 146.167969 65.910156 C 145.476562 65.917969 144.558594 64.472656 144.761719 63.761719 C 144.859375 63.402344 145.609375 62.183594 145.859375 61.792969 C 148.273438 58.011719 151.378906 54.558594 153.199219 50.34375 C 153.503906 49.398438 153.808594 48.425781 154.164062 47.503906 C 154.292969 47.167969 154.875 46.605469 154.363281 46.417969 C 153.609375 47.585938 152.941406 48.824219 152.1875 49.992188 C 151.078125 51.730469 147.914062 56.984375 146.375 57.910156 C 146.117188 58.058594 145.792969 58.074219 145.492188 58.214844 C 145.371094 58.273438 145.316406 58.566406 145.066406 58.550781 C 142.65625 58.488281 144.429688 55.640625 145.046875 54.597656 C 148.070312 49.480469 150.996094 44.132812 154.34375 39.261719 C 154.433594 39.128906 154.832031 38.429688 154.71875 38.375 C 154.460938 38.257812 152.796875 40.113281 152.378906 40.363281 C 149.429688 43.664062 146.085938 47.328125 144.238281 51.371094 C 143.371094 53.285156 143.058594 55.433594 142.363281 57.289062 C 141.90625 58.511719 140.992188 59.425781 139.636719 58.972656 C 138.40625 58.554688 138.023438 57.34375 137.800781 56.15625 C 137.695312 55.644531 137.640625 54.859375 137.542969 54.222656 C 136.710938 49.0625 136.242188 43.945312 134.398438 38.980469 C 134.128906 38.265625 134.019531 37.445312 133.75 36.722656 L 133.707031 38.386719 C 134.523438 41.898438 134.699219 45.480469 135.023438 49.058594 C 135.070312 49.628906 135.519531 51.125 134.4375 51.105469 C 133.828125 51.097656 133.65625 50.390625 133.445312 50.023438 C 132.671875 48.632812 132.132812 46.460938 131.71875 44.839844 C 131.09375 42.339844 130.800781 39.648438 130.027344 37.140625 C 129.945312 36.855469 129.949219 36.203125 129.550781 36.378906 C 129.628906 37.5 129.664062 38.632812 129.722656 39.757812 C 130.046875 45.929688 131.183594 50.554688 134 56.195312 C 135.007812 58.210938 136.585938 60.242188 137.324219 62.410156 C 137.355469 62.519531 137.558594 62.546875 137.578125 62.625 C 137.605469 62.714844 137.402344 63.5 137.242188 63.597656 C 137.058594 63.703125 136.808594 63.722656 136.582031 63.832031 C 136.355469 63.9375 136.457031 64.25 135.988281 64.109375 C 134.621094 63.699219 133.535156 62.070312 132.792969 60.898438 C 129.714844 56.027344 127.398438 50.234375 126.484375 44.53125 C 125.570312 38.828125 125.902344 32.414062 126.53125 26.660156 C 126.707031 25.082031 127.328125 23.859375 129.085938 23.738281 C 130.339844 23.644531 131.824219 26.011719 132.488281 26.921875 C 134.3125 29.398438 136.566406 32.632812 137.722656 35.429688 C 139.328125 39.300781 139.929688 43.558594 140.722656 47.644531 C 140.785156 47.976562 140.53125 48.199219 140.710938 48.53125 Z M 140.761719 48.527344 " fill-opacity="1" fill-rule="nonzero"/></g></g></g><g clip-path="url(#f0b8555266)"><g clip-path="url(#3d43709357)"><g clip-path="url(#c932b60c2a)"><path fill="#c13c35" d="M 63 189.429688 L 64.382812 189.300781 C 64.648438 189.214844 64.738281 188.941406 65 188.84375 C 65.597656 188.628906 67.589844 187.984375 68.082031 187.980469 C 68.378906 187.980469 68.679688 188.386719 68.671875 188.695312 C 68.664062 189.007812 67.132812 190.355469 66.769531 190.621094 C 65.339844 191.660156 63.582031 192.605469 62.046875 193.570312 L 60.671875 194.699219 C 61.558594 194.394531 62.515625 194.234375 63.40625 193.914062 C 66.527344 192.816406 69.542969 191.5 72.46875 189.984375 C 72.851562 189.789062 73.398438 189.289062 73.777344 189.117188 C 74.722656 188.695312 75.789062 189.46875 75.230469 190.128906 C 75.078125 190.300781 74.8125 190.347656 74.792969 190.382812 C 74.734375 190.476562 74.785156 191.804688 74.496094 192.507812 C 72.910156 196.453125 69.894531 200.375 68.765625 204.648438 C 68.089844 207.308594 67.566406 209.988281 67.152344 212.703125 C 67.117188 212.949219 66.855469 213.492188 67.222656 213.535156 C 67.621094 212.695312 67.6875 211.628906 67.960938 210.761719 C 69.054688 207.246094 70.78125 202.523438 72.332031 199.269531 C 72.457031 199.007812 73.078125 197.824219 73.1875 197.761719 C 73.890625 197.335938 74.214844 197.507812 74.21875 198.332031 C 74.214844 198.503906 74.019531 198.644531 73.988281 198.800781 C 72.640625 205.285156 70.324219 211.78125 69.011719 218.316406 L 68.675781 220.816406 C 69.09375 220.460938 69.253906 219.859375 69.550781 219.410156 C 72.183594 215.460938 74.40625 209.304688 75.511719 204.609375 C 76.429688 200.714844 76.859375 196.675781 77.363281 192.707031 C 77.390625 192.59375 77.863281 192.117188 77.96875 192.042969 C 78.007812 192.019531 78.800781 192.027344 78.835938 192.050781 C 78.863281 192.0625 79.21875 192.558594 79.238281 192.585938 C 79.726562 193.585938 79.28125 194.890625 79.226562 195.929688 C 79.121094 198.125 79.195312 200.378906 79.015625 202.578125 C 78.375 210.488281 73.921875 222.582031 67.683594 227.730469 C 66.582031 228.644531 65.027344 229.582031 63.75 228.488281 C 62.050781 227.03125 62.902344 225.390625 63.039062 223.566406 C 63.648438 215.398438 64.082031 206.101562 67.546875 198.628906 C 68.402344 196.78125 69.710938 195.101562 70.464844 193.1875 C 69.230469 193.722656 68.234375 194.714844 67.097656 195.402344 C 62.890625 197.957031 57.167969 200.105469 52.230469 200.449219 C 51.589844 200.492188 50.613281 200.292969 50.097656 200.355469 C 49.210938 200.453125 48.5 201.136719 47.710938 200.359375 C 47.484375 199.496094 47.15625 197.875 47.367188 197.011719 C 47.632812 195.867188 48.753906 195.449219 49.523438 194.832031 C 54.078125 191.21875 58.945312 187.128906 63.984375 184.34375 C 67.816406 182.230469 72.796875 181.0625 77.132812 181.332031 C 78.175781 181.394531 79.851562 181.957031 79.855469 183.195312 C 79.855469 184.082031 78.605469 184.558594 77.863281 184.6875 C 76.84375 184.863281 75.4375 184.753906 74.359375 184.90625 C 70.503906 185.457031 67.683594 186.75 64.410156 188.757812 C 63.957031 189.039062 63.542969 189.390625 62.988281 189.464844 Z M 63 189.429688 " fill-opacity="1" fill-rule="nonzero"/></g></g></g><g clip-path="url(#0bd8aea099)"><g clip-path="url(#25f1948dec)"><g clip-path="url(#8b02f1a19c)"><path fill="#c13c35" d="M 117.824219 94.300781 C 117.464844 94.425781 117.636719 95.046875 117.507812 95.414062 C 117.082031 96.648438 116.152344 97.535156 115.898438 99.101562 C 115.8125 99.628906 116.070312 100.332031 115.902344 100.863281 C 117.648438 103.625 119.320312 100.125 120.703125 99.375 C 121.519531 98.9375 122.9375 98.636719 123.71875 99.242188 C 125.136719 100.339844 125.835938 102.746094 127.589844 103.382812 C 128.554688 103.734375 130.105469 103.707031 131.03125 103.289062 C 132.140625 102.800781 132.519531 99.105469 133.617188 97.957031 C 134.855469 96.660156 136.636719 96.757812 138.136719 96.078125 C 139.308594 95.550781 141.230469 93.875 141.976562 92.828125 C 142.824219 91.625 144.164062 88.601562 143.941406 87.152344 C 143.574219 84.800781 142.527344 84.804688 140.539062 84.277344 C 138.746094 83.789062 134.855469 83.433594 134.503906 81.144531 C 134.339844 80.007812 135 78.75 136.238281 78.746094 C 136.34375 78.746094 137.234375 79.238281 137.296875 79.347656 C 137.417969 79.546875 137.410156 79.816406 137.523438 80.019531 C 137.664062 80.257812 139.707031 80.597656 140.160156 80.648438 C 141.4375 80.792969 142.671875 80.621094 143.941406 81.003906 C 148.136719 82.261719 148.820312 87.722656 147.5625 91.363281 C 146.304688 95 143.054688 98.734375 139.574219 100.066406 C 138.679688 100.40625 136.960938 100.59375 136.261719 101.015625 C 136.011719 101.164062 135.851562 102.339844 135.710938 102.703125 C 135.261719 103.855469 134.421875 105.496094 133.351562 106.164062 C 133.109375 106.320312 132.773438 106.332031 132.480469 106.46875 C 132.378906 106.519531 132.289062 106.726562 132.050781 106.828125 C 131.332031 107.121094 129.925781 107.355469 129.152344 107.363281 C 126.414062 107.425781 123.828125 105.746094 122.304688 103.566406 C 122.175781 103.378906 122.15625 103.046875 122.105469 103.027344 C 121.867188 102.894531 120.675781 104.292969 120.328125 104.53125 C 119.742188 104.933594 118.550781 105.425781 117.828125 105.550781 C 117.570312 105.589844 117.398438 105.46875 117.269531 105.476562 C 117.03125 105.492188 116.800781 105.621094 116.605469 105.613281 C 115.898438 105.570312 115.304688 105.058594 114.589844 104.945312 C 114.230469 104.4375 113.3125 103.957031 113.035156 103.4375 C 112.757812 102.917969 112.214844 100.992188 112.125 100.390625 C 112.011719 99.664062 112.421875 97.261719 112.679688 96.527344 C 112.8125 96.167969 113.40625 95.558594 113.203125 95.222656 C 113.074219 95.003906 111.851562 94.832031 111.511719 94.683594 C 109.476562 93.808594 108.601562 92.734375 108.242188 90.488281 C 108.03125 89.078125 108.554688 87.261719 109.144531 86.015625 C 109.238281 85.816406 109.105469 85.578125 109.140625 85.515625 C 109.167969 85.464844 109.433594 85.429688 109.554688 85.253906 C 109.964844 84.679688 110.1875 84.21875 110.824219 83.769531 C 111.96875 82.960938 114.09375 82.210938 115.464844 82.117188 C 116.363281 82.050781 116.851562 81.855469 117.503906 82.714844 C 117.296875 83.070312 117.609375 83.707031 117.238281 83.941406 C 117.011719 84.082031 116.828125 83.859375 116.683594 83.878906 C 116.039062 83.96875 113.53125 85.265625 112.925781 85.726562 C 111.53125 86.8125 110.855469 88.917969 111.585938 90.566406 C 111.652344 90.726562 111.675781 90.773438 111.804688 90.886719 C 112.367188 91.386719 115.199219 92.140625 116.03125 92.222656 C 116.503906 92.265625 116.3125 92.003906 116.285156 91.765625 C 116.140625 90.671875 116.191406 89.207031 116.65625 88.199219 C 116.84375 87.804688 118.261719 86.425781 118.667969 86.125 C 121.289062 84.261719 126.316406 83.148438 129.097656 85.132812 C 130.628906 86.230469 131.679688 88.09375 131 89.964844 C 130.660156 90.898438 130.183594 91.066406 129.417969 91.476562 C 128.046875 92.203125 125.734375 92.890625 124.125 92.679688 C 123.660156 92.621094 122.671875 92.179688 122.445312 91.765625 C 121.851562 90.675781 122.359375 90.015625 123.503906 89.847656 C 124.382812 89.710938 125.335938 89.941406 126.265625 89.542969 C 126.601562 89.40625 126.78125 88.992188 127.25 88.996094 C 127.191406 88.5625 127.109375 88.46875 126.777344 88.234375 C 126.335938 87.921875 124.988281 87.660156 124.464844 87.734375 C 123.414062 87.898438 121.230469 88.761719 120.484375 89.519531 C 120.410156 89.59375 120.003906 90.375 120.003906 90.449219 C 120.003906 91.964844 123.078125 93.078125 124.332031 93.390625 C 125.585938 93.699219 128.734375 94.117188 129.769531 93.660156 C 130.800781 93.203125 131.746094 92.300781 132.585938 91.546875 C 132.394531 91.070312 132.808594 90.800781 132.929688 90.445312 C 133.179688 89.679688 132.871094 88.605469 132.570312 87.847656 C 131.183594 84.371094 127.066406 82.898438 123.691406 81.960938 C 122.695312 81.425781 121.125 81.320312 121.675781 79.847656 C 121.957031 79.085938 122.078125 79.425781 122.339844 79.378906 C 122.578125 79.34375 122.8125 79.234375 123.023438 79.226562 C 123.214844 79.226562 123.410156 79.457031 123.667969 79.5 C 126.09375 79.921875 131.714844 81.359375 133.558594 82.824219 C 134.695312 83.738281 136.871094 86.996094 137.070312 88.359375 C 137.117188 88.632812 136.984375 88.84375 137.011719 89.121094 C 137.128906 90.082031 137.320312 90.484375 137.082031 91.546875 C 136.644531 93.519531 135.421875 95.132812 133.792969 96.292969 C 130.878906 98.378906 127.804688 98.421875 124.488281 97.753906 C 121.996094 97.253906 119.28125 96.398438 117.753906 94.277344 Z M 117.824219 94.300781 " fill-opacity="1" fill-rule="nonzero"/></g></g></g><g clip-path="url(#112512123c)"><g clip-path="url(#4743ade8ce)"><g clip-path="url(#834bf262dc)"><path fill="#c13c35" d="M 165.085938 182.09375 L 164.957031 183.316406 C 166.457031 191.09375 166.457031 200.378906 161.316406 206.960938 C 160.933594 207.453125 161.140625 207.351562 160.972656 207.957031 C 160.683594 208.957031 159.484375 209.34375 158.890625 208.554688 C 158.769531 208.386719 158.765625 208.046875 158.703125 208.011719 C 158.476562 207.882812 157.734375 207.871094 157.136719 207.425781 C 156.109375 206.675781 155.945312 205.773438 155.464844 204.695312 C 152.355469 197.636719 150.03125 190.105469 150.929688 182.3125 C 151.164062 180.238281 151.800781 177.992188 152.59375 176.078125 C 153.355469 175.273438 154.734375 174.683594 154.941406 176.183594 C 155.210938 178.15625 154.492188 181.296875 154.503906 183.503906 C 154.53125 186.484375 155.085938 190.199219 155.6875 193.113281 C 155.761719 193.441406 156.1875 195.070312 156.269531 195.132812 C 156.386719 195.207031 156.941406 195.015625 156.640625 194.640625 L 156.0625 182.789062 C 156.027344 182.371094 156.976562 182.003906 157.121094 182.089844 C 157.273438 182.175781 158.011719 185.046875 158.109375 185.53125 C 158.867188 189.125 158.914062 193.046875 159.539062 196.660156 C 159.609375 197.097656 159.753906 197.515625 159.875 197.9375 C 160.171875 197.714844 160.320312 197.117188 160.429688 196.753906 C 161.976562 191.484375 161.085938 183.777344 160.421875 178.460938 C 160.320312 177.625 159.804688 177.027344 160.503906 176.121094 C 161.84375 174.390625 163.230469 174.867188 164.808594 175.90625 C 166.75 177.195312 168.363281 179.058594 170.304688 180.347656 C 172.839844 182.042969 176.929688 183.457031 179.996094 183.3125 C 180.4375 183.292969 180.804688 183.273438 181.210938 183.09375 L 176.574219 181.222656 C 174.796875 180.785156 173.121094 180.082031 171.433594 179.371094 C 170.726562 179.074219 169.847656 178.867188 169.207031 178.355469 C 168.609375 177.867188 168.703125 177.671875 168.691406 176.96875 L 169.273438 176.800781 C 172.449219 177.820312 175.699219 178.210938 178.9375 179.113281 C 179.238281 179.199219 179.945312 179.582031 180.082031 179.199219 C 178.074219 178.046875 176.058594 176.566406 173.929688 175.589844 C 171.671875 174.5625 169.085938 173.960938 166.792969 173.042969 C 165.621094 172.566406 165.359375 172.097656 165.132812 170.828125 C 165.464844 170.839844 165.558594 170.492188 165.679688 170.4375 C 166.636719 169.96875 167.121094 170.394531 168.011719 170.480469 C 169.476562 170.605469 171.152344 170.570312 172.574219 170.867188 C 176.984375 171.796875 184.183594 176.046875 187.054688 179.542969 C 187.386719 179.949219 188.234375 181.007812 188.40625 181.417969 C 189.042969 182.890625 189.125 184.210938 187.824219 185.289062 C 185.746094 185.757812 183.519531 186.773438 181.460938 187.152344 C 176.648438 188.042969 170.640625 186.078125 166.585938 183.488281 L 165.042969 182.136719 Z M 165.085938 182.09375 " fill-opacity="1" fill-rule="nonzero"/></g></g></g><g clip-path="url(#9198fa069e)"><g clip-path="url(#865ef13cb9)"><g clip-path="url(#b51ef85873)"><path fill="#c13c35" d="M 181.828125 148.597656 C 182.894531 146.890625 183.265625 144.800781 184.039062 142.964844 C 184.777344 142.410156 185.136719 142.4375 185.167969 143.398438 C 185.207031 144.496094 184.5625 147.265625 184.320312 148.5 C 183.839844 150.910156 183.144531 153.320312 182.613281 155.714844 L 182.597656 157.097656 C 183.042969 156.167969 183.679688 155.292969 184.113281 154.355469 C 185.792969 150.765625 186.570312 146.347656 187.34375 142.421875 C 187.394531 142.148438 187.289062 141.902344 187.347656 141.628906 C 187.367188 141.539062 188.039062 140.320312 188.109375 140.257812 C 188.511719 139.84375 189.441406 139.394531 190.015625 139.355469 C 190.507812 139.324219 191.824219 140.042969 192.226562 140.398438 C 193.464844 141.472656 194.820312 143.8125 195.960938 145.140625 C 199.046875 148.746094 202.984375 150.976562 206.789062 153.585938 C 206.921875 153.675781 207.621094 154.074219 207.675781 153.960938 C 207.804688 153.699219 204.25 150.21875 203.824219 149.59375 C 201.214844 147.269531 198.746094 144.765625 196.363281 142.238281 C 196.726562 141.121094 198.21875 142.195312 198.917969 142.65625 C 200.890625 143.957031 203.515625 145.945312 205.417969 147.449219 C 206.25 148.105469 206.988281 149.078125 207.941406 149.539062 C 207.707031 148.679688 207.191406 147.707031 206.667969 147.003906 C 204.433594 143.984375 200.785156 141.511719 197.742188 139.417969 C 197.101562 138.984375 196.230469 138.691406 195.609375 138.25 C 194.828125 137.683594 193.628906 136.554688 194.46875 135.621094 C 194.980469 135.058594 195.882812 135.300781 196.507812 135.546875 C 197.472656 135.929688 198.558594 136.546875 199.488281 136.996094 C 203.113281 138.726562 206.832031 140.96875 209.445312 144.15625 C 212.058594 147.34375 214.492188 152.757812 214.179688 157.054688 C 214.074219 158.472656 213.203125 160.035156 211.671875 160.253906 C 210.863281 160.367188 210.507812 160.0625 209.90625 159.855469 C 208.847656 159.484375 208.855469 159.28125 208.078125 158.84375 C 203.082031 155.988281 197.957031 153.535156 193.675781 149.640625 L 190.945312 146.488281 C 190.65625 146.707031 190.480469 147.324219 190.390625 147.671875 C 189.195312 152.09375 188.554688 156.429688 185.667969 160.171875 C 184.332031 161.902344 182.003906 163.980469 179.800781 164.304688 C 178.910156 164.433594 177.644531 163.601562 177.234375 162.835938 C 176.820312 162.066406 177.277344 160.570312 177.3125 159.726562 C 177.558594 152.792969 177.632812 145.917969 180.605469 139.480469 C 181.074219 138.449219 182.339844 136.054688 183.328125 135.625 C 185.804688 134.515625 185.117188 136.878906 184.628906 138.332031 C 183.945312 140.367188 182.890625 142.34375 182.464844 144.496094 L 181.824219 148.621094 Z M 181.828125 148.597656 " fill-opacity="1" fill-rule="nonzero"/></g></g></g><g clip-path="url(#3c581433aa)"><g clip-path="url(#a43d6c0163)"><g clip-path="url(#943d3cc129)"><path fill="#c13c35" d="M 170.722656 79.726562 C 170.738281 80.226562 169.824219 80.507812 169.546875 80.066406 C 169.226562 79.539062 169.054688 78.167969 168.800781 77.460938 C 168.703125 77.203125 168.441406 77.105469 168.34375 76.84375 C 168.179688 76.382812 167.679688 74.199219 167.558594 74.113281 C 167.476562 74.054688 167.195312 74.484375 167.199219 74.613281 C 167.199219 75.019531 167.535156 75.585938 167.609375 76.03125 C 167.660156 76.316406 167.496094 76.535156 167.550781 76.796875 C 168.269531 80.1875 169.515625 82.773438 170.945312 85.78125 C 171 85.890625 171.234375 85.964844 171.316406 86.21875 C 171.539062 86.984375 170.882812 87.496094 170.378906 87.886719 C 169.410156 87.523438 168.835938 86.867188 168.21875 86.050781 C 164.667969 81.351562 163.671875 76.78125 163.332031 71.070312 C 163.167969 68.3125 163.160156 65.570312 163.300781 62.796875 C 163.722656 62.738281 163.976562 62.175781 164.242188 62.023438 C 165.300781 61.433594 167.011719 62.710938 167.800781 63.445312 C 169.605469 65.117188 171.300781 67.519531 172.25 69.789062 L 172.941406 70.519531 L 173.394531 68.082031 C 176.195312 58.628906 182.832031 52.355469 190.960938 47.179688 C 192.367188 46.910156 193.070312 47.160156 193.300781 48.671875 C 193.472656 49.828125 192.875 52.242188 192.667969 53.488281 C 191.644531 59.695312 190.53125 63.65625 187.824219 69.300781 C 187.730469 69.5 187.863281 69.738281 187.828125 69.800781 C 187.792969 69.863281 187.523438 69.890625 187.402344 70.0625 C 186.980469 70.71875 186.667969 71.597656 186.222656 72.207031 C 185.726562 72.894531 184.96875 73.367188 184.433594 74 C 183.226562 75.40625 181.980469 77.238281 180.703125 78.5 C 180.078125 79.117188 179.660156 79.453125 178.757812 79.605469 C 178.6875 79.625 178.292969 79.183594 178.226562 79.097656 C 178.203125 79.058594 178.210938 78.265625 178.234375 78.230469 C 178.261719 78.179688 178.847656 77.847656 179.078125 77.601562 C 180.773438 75.664062 183 72.351562 184.070312 70.027344 C 185.90625 66.019531 187.6875 61.144531 188.554688 56.398438 C 188.601562 56.160156 188.839844 55.613281 188.484375 55.566406 C 188.191406 56.257812 187.855469 56.941406 187.539062 57.628906 C 185.203125 62.785156 181.847656 67.527344 179.429688 72.632812 C 179.269531 72.96875 179.320312 73.699219 178.851562 73.695312 C 178.710938 73.695312 178.511719 73.410156 178.179688 73.632812 C 178.027344 73.546875 178.378906 71.792969 178.464844 71.5 C 179.800781 67.019531 182.792969 63.203125 184.601562 58.988281 C 184.742188 58.660156 184.878906 58.171875 185.015625 57.832031 C 185.296875 57.175781 185.8125 56.523438 186.121094 55.851562 C 185.878906 55.566406 185.5625 56.0625 185.378906 56.234375 C 179.902344 60.949219 176.507812 67.144531 174.734375 74.003906 C 174.507812 74.859375 173.832031 77.179688 173.789062 77.851562 C 173.761719 78.277344 173.988281 79.097656 173.964844 79.542969 C 173.933594 80.285156 173.691406 81.1875 173.707031 81.976562 C 173.71875 82.761719 174.484375 84.984375 172.859375 84.492188 C 172.71875 84.449219 172.1875 83.789062 172.117188 83.648438 C 172.015625 83.453125 172.199219 83.199219 172.15625 82.902344 C 171.515625 78.476562 170.292969 73.96875 168.382812 69.929688 L 167.695312 69.199219 L 170.71875 79.71875 Z M 170.722656 79.726562 " fill-opacity="1" fill-rule="nonzero"/></g></g></g><g clip-path="url(#0baa940702)"><g clip-path="url(#ccc5146a4b)"><g clip-path="url(#230c9a7ae0)"><path fill="#c13c35" d="M 55.75 142.871094 C 55.226562 143.171875 54.957031 143.464844 54.304688 143.523438 C 52.773438 143.664062 50.371094 142.945312 48.6875 142.886719 C 47.609375 142.855469 46.316406 142.992188 45.214844 143.0625 C 45.027344 143.074219 44.222656 142.730469 44.367188 143.339844 C 45.089844 143.367188 47.519531 143.433594 47.875 143.996094 C 47.96875 144.140625 48.113281 144.460938 47.921875 144.609375 C 47.730469 144.761719 47.453125 145.023438 47.296875 145.070312 C 47.039062 145.140625 46.867188 144.980469 46.730469 144.988281 C 43.449219 145.203125 40.132812 145.101562 36.824219 145.285156 C 36.308594 145.3125 35.753906 145.347656 35.238281 145.453125 L 37.609375 146.007812 C 40.660156 146.347656 43.792969 146.320312 46.789062 147.019531 C 47.273438 147.136719 49.4375 147.71875 49.660156 147.941406 C 49.765625 148.050781 50.300781 148.835938 50.300781 148.902344 C 50.300781 149.050781 50.070312 149.296875 50.007812 149.550781 C 49.976562 149.667969 50.09375 149.824219 50.066406 149.875 C 50.039062 149.925781 49.714844 149.945312 49.535156 150.070312 C 47.632812 151.429688 45.566406 152.566406 43.941406 154.328125 C 43.058594 155.273438 42.425781 156.449219 41.476562 157.34375 L 39.183594 160.949219 L 41.582031 159.199219 C 43.640625 157.5625 45.742188 155.65625 47.875 154.136719 C 48.453125 153.722656 51.144531 151.914062 51.121094 153.542969 C 51.109375 154.285156 49.164062 155.71875 48.601562 156.316406 C 47.222656 157.769531 45.867188 159.324219 44.515625 160.824219 C 44.117188 161.257812 43.589844 161.71875 43.402344 162.296875 L 52.492188 156.085938 C 53.113281 156.046875 53.761719 156.265625 54.097656 156.808594 C 54.199219 156.972656 54.203125 157.867188 54.171875 157.917969 C 54.117188 158.019531 52.507812 159.035156 52.179688 159.300781 C 48.164062 162.667969 43.890625 167.78125 39.015625 169.71875 C 38.078125 170.09375 35.210938 170.554688 34.15625 170.558594 C 33.898438 170.558594 32.25 170.433594 32.160156 170.386719 C 32.132812 170.363281 32.082031 170.109375 31.910156 169.957031 C 31.808594 169.859375 31.558594 169.84375 31.460938 169.691406 C 31.324219 169.472656 30.992188 168.332031 30.992188 168.0625 C 30.988281 167.863281 32.628906 165 32.90625 164.546875 C 35.378906 160.492188 39.195312 153.910156 42.777344 150.914062 C 43.035156 150.703125 43.1875 150.488281 43.585938 150.46875 L 41.28125 150.140625 C 37.835938 150.0625 34.15625 149.894531 30.84375 148.882812 C 29.605469 148.503906 26.644531 147.410156 25.71875 146.652344 C 25.539062 146.5 24.828125 145.628906 24.792969 145.507812 C 24.769531 145.429688 24.90625 145.304688 24.886719 145.203125 C 24.792969 144.539062 24.679688 143.960938 25.148438 143.359375 C 25.386719 143.042969 26.40625 142.3125 26.757812 142.242188 C 27.03125 142.195312 27.222656 142.335938 27.3125 142.320312 C 35.59375 140.867188 43.914062 138.097656 52.453125 140.363281 C 53.042969 140.511719 54.863281 141.121094 55.21875 141.476562 C 55.308594 141.570312 55.773438 142.171875 55.785156 142.222656 C 55.804688 142.28125 55.570312 142.613281 55.738281 142.867188 Z M 55.75 142.871094 " fill-opacity="1" fill-rule="nonzero"/></g></g></g><g clip-path="url(#18eed83b27)"><g clip-path="url(#f07f4154db)"><g clip-path="url(#fc05e40cd4)"><path fill="#c13c35" d="M 205.785156 67.210938 C 205.523438 67.414062 205.292969 67.84375 205.160156 68.15625 C 204.445312 69.792969 203.753906 71.507812 203.015625 73.128906 C 202.582031 74.078125 202.09375 75.015625 201.648438 75.957031 C 201.414062 76.367188 201.058594 75.902344 200.667969 76.109375 L 200.503906 75.527344 C 201.019531 73.5 201.6875 71.527344 202.230469 69.511719 C 202.539062 68.355469 202.660156 67.117188 202.992188 65.964844 C 203.460938 64.367188 204.253906 62.78125 204.6875 61.132812 C 204.742188 60.914062 204.992188 60.179688 204.652344 60.117188 C 204.035156 61.320312 203.171875 62.316406 202.5625 63.535156 C 198.75 71.113281 199.070312 78.085938 199.789062 86.257812 C 199.84375 86.894531 200.140625 87.75 200.101562 88.421875 C 200.027344 89.574219 198.921875 90.554688 198.050781 89.683594 C 197.332031 88.960938 196.660156 86.476562 196.433594 85.398438 C 196.378906 85.125 196.539062 84.910156 196.492188 84.632812 C 195.324219 78.160156 194.917969 72.671875 196.941406 66.1875 C 198.523438 61.109375 201.328125 57.570312 204.414062 53.417969 C 205.066406 52.535156 205.863281 50.707031 206.949219 50.246094 C 207.632812 49.953125 208.785156 50.101562 209.359375 50.574219 C 210.035156 51.140625 210.460938 52.769531 210.636719 53.679688 C 212.292969 62.148438 208.535156 73.839844 205.246094 81.710938 C 205.128906 82 205.128906 82.640625 204.796875 82.855469 C 203.574219 83.613281 202.71875 82.867188 202.3125 81.679688 C 202.980469 77.761719 204.421875 74.09375 205.378906 70.25 L 205.816406 67.210938 Z M 205.785156 67.210938 " fill-opacity="1" fill-rule="nonzero"/></g></g></g><g clip-path="url(#6103a54507)"><g clip-path="url(#8d161771b3)"><g clip-path="url(#5d82fca2cd)"><path fill="#c13c35" d="M 81.390625 94.925781 C 81.402344 95.550781 80.21875 96.117188 79.636719 95.953125 C 78.878906 95.730469 78.585938 94.484375 78.234375 93.824219 C 75.292969 88.308594 72.355469 82.324219 75.03125 75.894531 C 75.277344 75.300781 76.371094 73.609375 76.878906 73.335938 C 79.195312 72.105469 80.429688 73.394531 81.816406 75.128906 C 84.652344 78.691406 88.78125 85.058594 90.285156 89.292969 C 90.964844 91.199219 91.671875 95.03125 91.71875 97.058594 C 91.730469 97.542969 91.152344 99.28125 90.773438 99.519531 C 90.28125 99.820312 89.195312 99.972656 88.859375 99.4375 C 88.546875 98.949219 88.738281 97.09375 88.707031 96.386719 C 88.066406 91.820312 85.957031 87.195312 83.429688 83.375 C 82.878906 82.542969 82.183594 81.792969 81.722656 80.890625 C 81.425781 80.898438 81.449219 81.683594 81.472656 81.847656 C 81.828125 83.933594 82.746094 85.855469 83.054688 88.085938 C 83.230469 89.367188 83.359375 90.632812 83.359375 91.933594 L 82.425781 92.203125 C 82.417969 91.738281 82.011719 91.542969 81.875 91.21875 C 80.929688 88.898438 80.011719 86.644531 78.871094 84.417969 L 78.113281 83.453125 L 81.410156 94.917969 Z M 81.390625 94.925781 " fill-opacity="1" fill-rule="nonzero"/></g></g></g><g clip-path="url(#2d4d54af6d)"><g clip-path="url(#f242212971)"><g clip-path="url(#717e27d95c)"><path fill="#c13c35" d="M 43.109375 119.375 L 44.941406 119.839844 C 47.457031 120.203125 50.101562 120.339844 52.578125 120.78125 C 52.949219 120.84375 53.828125 121.457031 54.03125 121.75 C 54.40625 122.316406 52.988281 123.023438 52.484375 123.09375 C 50.238281 123.40625 47.445312 123.238281 45.117188 123.121094 C 44.171875 123.070312 43.078125 122.710938 42.101562 122.992188 L 44.199219 124.054688 C 46.882812 124.992188 49.660156 125.601562 52.382812 126.152344 C 52.53125 126.183594 52.714844 126.046875 52.992188 126.125 C 53.132812 126.160156 53.695312 126.898438 53.710938 126.957031 C 53.730469 127.015625 53.496094 127.347656 53.664062 127.601562 C 53.140625 127.898438 52.871094 128.191406 52.214844 128.25 C 50.265625 128.4375 47.230469 127.65625 45.15625 127.71875 C 41.703125 126.917969 38.300781 125.816406 35.078125 124.371094 C 33.914062 123.851562 32.035156 123.136719 31.035156 122.34375 C 29.878906 121.429688 29.320312 119.792969 30.335938 118.5625 C 30.847656 117.9375 31.917969 117.648438 32.726562 117.492188 C 33 117.433594 33.214844 117.597656 33.492188 117.550781 C 40.46875 116.386719 48.367188 114.265625 55.417969 116.742188 C 55.964844 116.9375 57.226562 117.425781 57.632812 117.757812 C 58.636719 118.578125 58.527344 119.6875 57.238281 119.910156 L 50.714844 118.765625 C 48.597656 118.710938 46.546875 119.035156 44.476562 119.257812 C 44.050781 119.304688 43.59375 119.085938 43.113281 119.382812 Z M 43.109375 119.375 " fill-opacity="1" fill-rule="nonzero"/></g></g></g><g clip-path="url(#352db61ed8)"><g clip-path="url(#bf9fd7fec6)"><g clip-path="url(#3b17e87a15)"><path fill="#c13c35" d="M 209.390625 117.121094 C 209.683594 116.589844 211.101562 117.292969 211.519531 117.40625 C 216.996094 118.886719 223.933594 120.816406 229.546875 120.035156 C 230.183594 119.949219 230.886719 119.832031 231.507812 119.726562 C 231.9375 119.65625 232.382812 119.421875 232.820312 119.351562 L 231.53125 118.984375 C 226.757812 118.757812 222.101562 117.78125 217.472656 116.730469 C 216.570312 116.070312 217.136719 115.738281 218.050781 115.6875 C 219.289062 115.621094 221.132812 116.382812 222.472656 115.953125 L 229.128906 116.3125 C 228.671875 115.945312 227.953125 115.785156 227.402344 115.65625 C 223.101562 114.621094 217.984375 113.828125 213.605469 114.375 C 212.121094 114.554688 210.675781 115.140625 209.273438 115.382812 C 208.925781 115.441406 208.546875 115.1875 208.148438 115.441406 C 207.386719 113.269531 209.941406 113.28125 211.351562 112.738281 C 219.9375 109.445312 230.152344 113.414062 238.53125 116.054688 C 239.226562 116.269531 241.28125 116.597656 241.671875 117.210938 C 242.09375 117.890625 242.164062 119.109375 241.660156 119.765625 C 241.46875 120.023438 240.601562 120.679688 240.300781 120.796875 C 233.097656 123.871094 226.6875 123.453125 219.320312 121.324219 C 216.816406 120.601562 213.933594 119.785156 211.46875 118.96875 C 211.195312 118.875 209.800781 118.296875 209.722656 118.167969 C 209.625 118.015625 209.382812 117.167969 209.414062 117.125 Z M 209.390625 117.121094 " fill-opacity="1" fill-rule="nonzero"/></g></g></g><g clip-path="url(#fd07880585)"><g clip-path="url(#8e06051c2b)"><g clip-path="url(#e5c12b6e7e)"><path fill="#c13c35" d="M 129.132812 179.390625 C 129.9375 178.953125 130.578125 179.132812 130.960938 179.984375 C 131.417969 181.015625 130.988281 182.304688 130.925781 183.355469 C 130.90625 183.726562 131.066406 184.320312 131.023438 184.800781 C 130.613281 189.136719 128.792969 194.902344 125.421875 197.8125 C 123.628906 199.363281 121.359375 200.242188 119.265625 201.164062 C 118.699219 201.410156 118.382812 201.171875 118.011719 201.246094 C 117.011719 201.449219 116.480469 201.792969 115.359375 201.722656 C 114.339844 201.660156 113.378906 201.328125 113.214844 200.191406 C 113.039062 198.960938 114.511719 199.617188 115.183594 199.507812 C 117.308594 199.183594 122.121094 195.753906 123.441406 193.921875 C 125.589844 190.964844 125.921875 187.667969 126.949219 184.332031 C 127.101562 183.828125 127.550781 183.089844 127.726562 182.582031 C 128.054688 181.640625 128.105469 179.929688 129.121094 179.382812 Z M 129.132812 179.390625 " fill-opacity="1" fill-rule="nonzero"/></g></g></g></svg>